<?xml version="1.0" standalone="no"?>
<!DOCTYPE svg PUBLIC "-//W3C//DTD SVG 20010904//EN"
 "http://www.w3.org/TR/2001/REC-SVG-20010904/DTD/svg10.dtd">
<svg version="1.0" xmlns="http://www.w3.org/2000/svg"
 width="742.000000pt" height="742.000000pt" viewBox="0 0 742.000000 742.000000"
 preserveAspectRatio="xMidYMid meet">
<metadata>
Created by potrace 1.14, written by Peter Selinger 2001-2017
</metadata>
<g transform="translate(0.000000,742.000000) scale(0.100000,-0.100000)"
fill="#000000" stroke="none">
<path d="M4174 7411 c-83 -21 -152 -85 -171 -161 -25 -97 19 -257 111 -404 66
-106 73 -111 611 -526 54 -41 101 -83 105 -94 4 -12 6 -46 4 -76 -5 -111 -16
-296 -19 -350 -2 -30 -7 -120 -10 -200 -4 -80 -8 -163 -10 -185 -1 -22 -6
-105 -10 -185 -4 -80 -8 -161 -10 -180 -5 -68 22 -131 83 -187 116 -108 146
-100 196 54 62 190 326 977 329 980 2 1 14 -6 28 -17 26 -20 324 -238 542
-395 l137 -100 -5 -60 c-8 -88 -14 -162 -20 -230 -3 -33 -7 -80 -10 -105 -3
-25 -7 -72 -10 -105 l-5 -60 60 -47 c32 -27 61 -48 63 -48 2 0 21 37 42 83 21
45 54 118 75 162 20 44 49 108 65 143 l28 62 47 -79 c47 -78 139 -258 172
-336 9 -22 26 -60 36 -85 39 -91 114 -326 137 -430 23 -98 44 -204 49 -240 3
-25 8 -58 11 -75 12 -79 16 -108 22 -210 16 -235 4 -516 -28 -705 -33 -194
-63 -321 -115 -482 -227 -701 -701 -1309 -1329 -1703 -88 -55 -372 -207 -403
-215 -9 -3 -29 -11 -122 -48 -81 -32 -303 -103 -385 -122 -94 -22 -280 -58
-335 -65 -30 -4 -66 -9 -80 -10 -175 -22 -507 -22 -695 0 -16 2 -55 7 -85 10
-30 4 -84 13 -120 20 -37 8 -77 16 -90 18 -85 16 -264 66 -375 104 -780 272
-1420 833 -1788 1568 -30 61 -67 139 -81 175 -15 36 -31 74 -36 85 -31 64
-122 369 -146 490 -72 356 -87 684 -49 1038 3 32 19 128 40 242 29 154 121
457 185 600 175 397 390 714 680 1005 47 47 111 108 144 135 32 28 64 56 72
64 38 35 243 183 332 238 214 133 419 230 657 311 110 38 311 94 378 106 139
25 190 33 269 42 29 3 64 8 78 11 41 8 470 12 532 4 57 -7 58 -7 43 13 -56 78
-120 193 -147 264 l-31 82 -46 1 c-100 1 -258 -2 -301 -6 -25 -2 -74 -7 -110
-10 -291 -26 -722 -132 -955 -234 -11 -5 -49 -21 -85 -36 -303 -127 -623 -328
-900 -563 -79 -67 -283 -272 -363 -364 -215 -246 -437 -603 -566 -908 -18 -41
-36 -84 -41 -95 -5 -11 -25 -66 -45 -123 -101 -297 -151 -528 -185 -867 -9
-81 -6 -568 3 -615 3 -14 8 -52 12 -85 41 -384 169 -811 350 -1165 181 -357
364 -609 650 -895 359 -359 734 -606 1200 -790 255 -101 589 -187 820 -211 27
-3 59 -7 70 -9 113 -23 638 -23 777 0 13 2 46 6 73 10 262 33 562 112 854 225
256 99 638 325 875 516 306 247 628 617 807 927 19 33 42 73 53 90 153 259
321 714 381 1032 14 79 45 299 52 375 15 165 8 615 -11 718 -5 23 -15 87 -22
137 -3 22 -12 74 -21 115 -8 41 -16 82 -18 90 -72 361 -236 755 -470 1133 -46
74 -48 79 -34 106 8 17 101 96 224 192 116 89 212 164 215 166 5 4 -35 38 -90
78 l-36 25 -263 -89 -263 -89 -326 281 c-180 154 -328 283 -330 287 -3 7 77
59 383 247 485 299 577 357 586 375 18 33 2 63 -53 106 -111 85 -154 87 -388
19 -454 -133 -541 -159 -759 -223 -101 -30 -198 -54 -215 -54 -23 0 -49 14
-97 53 -228 183 -325 262 -329 267 -16 20 -218 174 -250 190 -138 71 -348 108
-456 81z"/>
<path d="M2190 5601 c-1 -9 -2 -396 -3 -861 -2 -823 -3 -846 -22 -884 -30 -60
-64 -80 -143 -84 -89 -5 -139 17 -167 73 -17 33 -21 65 -23 183 -4 127 -6 142
-20 138 -15 -4 -82 -15 -187 -30 -16 -2 -76 -12 -132 -21 -56 -9 -111 -17
-122 -18 -24 -2 -24 1 -23 -137 3 -258 93 -437 273 -543 111 -65 213 -89 394
-92 296 -4 502 99 600 300 70 145 68 111 70 1097 1 800 0 888 -14 892 -9 2
-121 4 -248 4 -208 0 -233 -2 -233 -17z"/>
<path d="M3371 4892 c-151 -400 -339 -896 -416 -1102 -78 -206 -145 -384 -149
-395 -6 -20 -1 -20 251 -20 l257 0 7 25 c4 14 22 66 39 115 47 129 150 427
150 432 0 9 769 2 775 -7 3 -6 39 -106 80 -223 40 -116 84 -241 97 -277 l23
-65 253 0 c140 0 255 2 257 5 3 5 -70 207 -95 265 -5 11 -36 94 -70 185 -34
91 -75 199 -91 240 -44 116 -301 796 -450 1192 l-134 358 -255 0 -255 0 -274
-728z m562 68 c14 -41 66 -193 115 -337 50 -145 90 -264 89 -264 -1 -1 -109
-2 -239 -3 -171 -1 -238 2 -238 10 0 6 24 81 54 165 29 85 66 190 80 234 15
44 31 89 36 100 4 11 21 57 36 102 16 45 31 79 35 75 3 -4 18 -41 32 -82z"/>
<path d="M3294 2958 c-50 -10 -83 -43 -91 -91 -8 -54 12 -92 68 -127 27 -16
53 -30 58 -30 4 0 20 -11 34 -24 26 -24 28 -64 3 -67 -6 -1 -21 -3 -33 -4 -12
-1 -40 6 -61 15 l-40 18 -21 -29 c-11 -15 -21 -31 -21 -33 0 -16 87 -47 133
-47 106 -2 165 50 154 134 -7 49 -36 81 -108 117 -70 36 -84 52 -69 79 14 27
63 28 99 1 l28 -19 21 29 c27 36 27 34 -3 54 -35 23 -102 34 -151 24z"/>
<path d="M1387 2951 c-3 -6 -2 -42 1 -67 1 -6 31 -10 80 -9 42 1 80 0 84 -2 4
-2 -36 -69 -88 -149 -53 -79 -94 -152 -92 -162 3 -15 21 -17 171 -17 l167 -1
0 44 0 43 -96 -2 c-52 -1 -97 1 -99 3 -3 2 34 61 80 131 47 70 85 131 85 137
0 5 5 10 11 10 6 0 9 10 7 23 -3 22 -5 22 -156 23 -83 1 -153 -1 -155 -5z"/>
<path d="M1762 2794 c3 -145 5 -166 24 -191 28 -39 84 -64 142 -65 64 0 116
25 144 70 19 32 22 49 23 192 l1 158 -47 -1 -46 0 0 -143 c0 -170 -9 -194 -72
-194 -66 0 -76 21 -78 169 -1 69 -2 136 -2 149 -1 20 -6 22 -47 20 l-46 -1 4
-163z"/>
<path d="M2183 2752 l2 -206 43 -2 c47 -1 46 -4 42 98 -1 38 3 49 19 57 23 13
27 8 80 -94 l31 -60 50 0 c27 0 50 3 50 7 0 3 -23 43 -50 87 -28 45 -46 81
-41 81 18 0 53 61 56 99 1 21 -4 53 -13 70 -23 49 -63 64 -174 67 l-96 2 1
-206z m176 114 c33 -39 -10 -99 -63 -89 -21 4 -23 10 -23 54 l0 49 37 0 c21 0
43 -6 49 -14z"/>
<path d="M2697 2952 c-3 -6 -1 -389 2 -402 0 -3 19 -5 41 -5 44 -1 43 -5 41
96 l-1 55 48 2 c67 3 118 28 136 67 31 64 17 129 -34 165 -27 19 -48 23 -131
26 -54 2 -100 0 -102 -4z m176 -90 c9 -9 14 -26 12 -37 -2 -11 -4 -23 -4 -26
-2 -11 -46 -24 -72 -21 -24 3 -26 7 -26 53 l0 49 37 0 c23 0 43 -7 53 -18z"/>
<path d="M3038 2942 c-2 -9 -4 -102 -3 -207 l0 -190 35 -1 c19 0 40 2 47 4 8
2 11 60 10 205 l-2 202 -41 2 c-33 2 -43 -1 -46 -15z"/>
<path d="M3510 2919 c0 -22 3 -40 8 -40 4 -1 34 -2 67 -3 l60 -1 0 -160 c-1
-88 2 -162 6 -165 4 -3 25 -5 46 -5 l38 0 1 158 c1 87 5 161 9 165 4 4 29 8
56 8 27 1 54 2 60 3 6 0 9 17 7 39 l-3 37 -177 1 -178 2 0 -39z"/>
<path d="M3919 2947 c-4 -54 -3 -397 1 -398 3 -1 64 -2 135 -3 l130 -1 5 25
c12 52 3 60 -64 59 -129 -2 -122 -5 -118 46 l4 45 79 0 79 0 0 40 0 40 -80 0
c-44 0 -80 3 -81 8 -7 70 -9 69 98 67 77 -2 84 4 75 61 -3 19 -10 20 -132 21
-93 1 -130 -2 -131 -10z"/>
<path d="M4269 2927 c-1 -28 0 -135 1 -323 l0 -60 40 0 c22 0 41 5 43 11 2 5
3 63 2 128 0 64 0 117 1 117 1 0 37 -55 80 -122 43 -68 82 -125 86 -128 4 -3
27 -6 50 -5 l43 0 0 205 0 205 -42 1 -43 1 -1 -46 c0 -25 -1 -83 0 -128 0 -46
-2 -83 -4 -83 -2 0 -36 53 -76 118 -40 64 -79 122 -86 128 -8 7 -31 12 -53 12
-38 1 -40 -1 -41 -31z"/>
<path d="M4723 2732 c-19 -3 -23 -10 -23 -38 l0 -34 91 0 90 0 -3 37 -3 37
-65 0 c-36 1 -75 0 -87 -2z"/>
<path d="M2916 2344 c-19 -18 -19 -20 -6 -45 6 -11 21 -19 35 -19 20 0 45 24
45 44 0 10 -32 36 -45 36 -7 0 -21 -7 -29 -16z"/>
<path d="M3035 2344 c-9 -9 -14 -23 -11 -31 3 -8 6 -16 6 -18 0 -3 9 -9 20
-15 15 -8 24 -6 40 10 24 24 25 34 4 54 -20 20 -38 20 -59 0z"/>
<path d="M2996 2250 l-39 -5 -69 -185 c-38 -102 -74 -193 -79 -202 -8 -16 -4
-18 40 -18 l48 0 18 48 c10 26 22 50 27 53 5 3 37 5 71 4 l62 -1 19 -52 19
-52 48 0 c47 0 48 1 39 23 -5 12 -39 101 -75 197 -36 96 -71 180 -78 185 -7 6
-30 9 -51 5z m32 -170 l21 -60 -44 0 -44 0 21 60 c11 33 21 60 23 60 2 0 12
-27 23 -60z"/>
<path d="M3820 2250 c-141 -42 -196 -218 -107 -344 27 -38 110 -76 168 -76
113 0 189 74 189 184 l0 45 -90 -1 c-49 0 -90 -4 -91 -9 -1 -5 -1 -18 -1 -29
0 -39 2 -42 35 -40 68 4 74 -6 30 -46 -24 -22 -35 -25 -76 -21 -27 2 -56 12
-68 23 -69 63 -51 207 28 230 45 12 96 6 126 -16 l28 -21 30 21 c31 23 30 33
-11 68 -37 32 -136 49 -190 32z"/>
<path d="M5838 2250 c-57 -17 -97 -50 -124 -106 -23 -48 -26 -63 -21 -121 8
-104 70 -173 170 -190 130 -21 227 60 227 188 l0 36 -92 -1 c-86 -1 -93 -2
-92 -21 2 -54 2 -54 45 -52 23 1 41 -1 40 -5 -1 -5 -1 -15 -1 -23 0 -19 -51
-45 -90 -45 -38 0 -85 31 -104 68 -15 30 -13 111 4 142 29 55 126 71 181 31
l29 -22 29 22 c25 18 28 25 18 40 -30 48 -146 80 -219 59z"/>
<path d="M1360 2245 c0 -10 144 -391 150 -398 9 -10 66 -16 79 -8 4 3 42 96
83 206 l75 200 -45 3 c-25 2 -48 -2 -52 -8 -4 -6 -26 -69 -50 -140 -24 -72
-47 -127 -51 -123 -4 5 -26 68 -50 141 l-43 132 -48 0 c-26 0 -48 -2 -48 -5z"/>
<path d="M1792 2045 l1 -205 138 0 139 0 0 40 0 40 -92 0 -93 0 -1 45 0 45 45
1 c123 2 116 0 116 44 l0 40 -80 0 -80 0 0 35 1 35 87 3 87 3 0 39 0 40 -135
0 -134 0 1 -205z"/>
<path d="M2145 2045 l0 -205 42 0 c48 0 46 -5 44 97 0 39 4 53 17 58 21 8 43
-19 83 -97 l29 -58 50 0 c28 0 50 3 50 6 0 4 -10 23 -22 43 -73 115 -75 121
-55 136 47 34 57 123 20 173 -27 37 -73 51 -173 51 l-85 1 0 -205z m173 120
c6 -2 12 -20 12 -39 0 -39 -17 -53 -66 -54 -30 -1 -30 1 -31 46 -1 26 4 50 10
54 10 6 48 2 75 -7z"/>
<path d="M2515 2048 l0 -203 133 -3 132 -3 0 41 0 40 -85 0 c-61 0 -85 4 -86
13 0 6 0 81 0 165 l0 152 -47 0 -47 0 0 -202z"/>
<path d="M3251 2045 l0 -205 44 0 44 0 3 127 3 127 80 -127 80 -127 48 0 c30
0 47 4 48 13 1 17 1 369 0 385 -1 8 -17 12 -46 12 l-45 0 0 -132 0 -132 -27
45 c-16 25 -33 54 -40 65 -7 10 -30 49 -53 87 l-41 67 -49 0 -49 0 0 -205z"/>
<path d="M4139 2238 c-1 -17 -1 -357 0 -380 1 -16 14 -18 134 -18 74 0 136 2
138 5 3 2 3 20 1 40 l-4 35 -89 0 -89 0 0 45 0 45 63 1 c34 1 70 1 80 0 10 -2
17 5 18 16 0 10 2 28 3 40 3 26 -9 30 -96 28 l-68 -1 0 37 0 38 87 3 88 3 0
35 0 35 -132 3 c-103 2 -133 0 -134 -10z"/>
<path d="M4490 2045 l0 -205 43 0 44 0 1 71 c1 39 4 74 7 77 20 20 39 4 78
-69 l42 -79 54 0 c53 0 53 0 39 23 -79 123 -91 150 -74 159 24 13 46 62 46
102 0 89 -57 126 -193 126 l-87 0 0 -205z m171 117 c36 -39 1 -95 -54 -90 -18
2 -31 6 -29 11 1 4 2 27 2 51 l0 43 38 -4 c20 -2 40 -7 43 -11z"/>
<path d="M4850 2102 c0 -133 2 -152 23 -192 28 -57 63 -75 149 -75 75 0 109
18 142 74 16 27 19 56 21 187 l2 154 -48 0 -48 0 0 -77 c0 -220 0 -221 -23
-243 -27 -25 -69 -26 -99 -1 -23 18 -24 25 -26 163 -1 78 -2 146 -2 151 -1 4
-21 7 -46 7 l-45 0 0 -148z"/>
<path d="M5272 2045 l0 -205 44 0 43 0 3 126 3 126 80 -126 80 -126 47 0 c45
0 48 1 49 28 0 15 2 107 2 204 l2 178 -47 0 -47 0 0 -87 c0 -49 0 -108 0 -133
l-1 -44 -81 132 -82 132 -48 0 -48 0 1 -205z"/>
</g>
</svg>
