<?xml version="1.0" standalone="no"?>
<!DOCTYPE svg PUBLIC "-//W3C//DTD SVG 20010904//EN"
 "http://www.w3.org/TR/2001/REC-SVG-20010904/DTD/svg10.dtd">
<svg version="1.0" xmlns="http://www.w3.org/2000/svg"
 width="512.000000pt" height="512.000000pt" viewBox="0 0 512.000000 512.000000"
 preserveAspectRatio="xMidYMid meet">
<metadata>
Created by potrace 1.14, written by Peter Selinger 2001-2017
</metadata>
<g transform="translate(0.000000,512.000000) scale(0.100000,-0.100000)"
fill="#000000" stroke="none">
<path d="M0 2560 l0 -2560 2560 0 2560 0 0 2560 0 2560 -2560 0 -2560 0 0
-2560z m2876 1000 c176 -45 334 -160 398 -291 126 -260 -23 -531 -353 -642
l-74 -25 44 -12 c298 -77 478 -236 508 -450 34 -248 -121 -470 -394 -567 l-80
-28 -602 -3 -603 -3 0 1021 0 1020 538 0 c506 0 544 -1 618 -20z"/>
<path d="M2070 3081 l0 -451 268 0 c147 0 287 5 312 11 145 33 249 135 286
281 26 99 16 272 -21 363 -38 93 -124 181 -210 215 -57 23 -73 24 -347 28
l-288 4 0 -451z"/>
<path d="M2070 2070 l0 -480 293 0 c169 0 318 5 352 11 156 29 262 134 305
304 51 199 4 422 -112 531 -112 106 -149 114 -530 114 l-308 0 0 -480z"/>
</g>
</svg>
