<?xml version="1.0" standalone="no"?>
<!DOCTYPE svg PUBLIC "-//W3C//DTD SVG 20010904//EN"
 "http://www.w3.org/TR/2001/REC-SVG-20010904/DTD/svg10.dtd">
<svg version="1.0" xmlns="http://www.w3.org/2000/svg"
 width="512.000000pt" height="512.000000pt" viewBox="0 0 512.000000 512.000000"
 preserveAspectRatio="xMidYMid meet">
<metadata>
Created by potrace 1.14, written by Peter Selinger 2001-2017
</metadata>
<g transform="translate(0.000000,512.000000) scale(0.100000,-0.100000)"
fill="#000000" stroke="none">
<path d="M538 4566 c-27 -7 -48 -11 -48 -9 0 2 -22 -8 -48 -21 -172 -87 -221
-258 -146 -514 27 -95 93 -231 157 -327 83 -123 98 -139 327 -318 8 -7 44 -35
80 -62 36 -28 70 -54 76 -60 7 -5 22 -18 35 -27 174 -128 507 -390 523 -411
27 -36 27 -101 1 -557 -8 -129 -14 -253 -20 -380 -3 -63 -8 -144 -10 -180 -2
-36 -7 -126 -11 -200 -3 -74 -8 -153 -9 -175 -2 -22 -6 -116 -10 -210 -7 -161
-6 -173 15 -229 16 -41 39 -76 79 -116 174 -176 245 -173 306 10 15 47 36 105
46 130 32 82 76 211 179 530 56 173 140 432 187 575 46 143 86 266 89 274 3 9
8 10 17 3 16 -12 96 -72 128 -95 13 -9 56 -40 94 -68 39 -28 81 -59 95 -69 14
-11 66 -48 115 -84 50 -36 95 -69 100 -73 6 -5 84 -62 175 -128 91 -66 170
-124 177 -130 6 -5 46 -35 88 -65 l76 -55 -6 -70 c-3 -38 -8 -86 -10 -105 -2
-19 -6 -66 -10 -105 -3 -38 -8 -83 -10 -100 -2 -16 -7 -68 -10 -115 -4 -47 -8
-95 -10 -106 -2 -12 -6 -61 -10 -110 -4 -49 -9 -96 -10 -104 -1 -8 5 -22 14
-30 41 -38 161 -130 169 -130 5 0 19 21 30 48 11 26 38 85 60 132 22 47 88
191 147 320 59 129 114 243 123 253 29 33 83 41 148 22 l59 -17 45 49 c25 27
62 74 84 105 37 54 38 57 22 85 -39 71 -47 96 -41 131 6 42 34 71 166 169 55
42 351 273 379 296 9 7 41 32 72 56 l57 43 -90 74 c-50 41 -94 74 -97 74 -10
0 -94 -28 -456 -149 -180 -61 -334 -111 -341 -111 -7 0 -15 3 -17 8 -1 4 -32
32 -68 62 -36 30 -70 60 -76 65 -6 6 -35 30 -64 55 -29 25 -58 50 -64 55 -6 6
-58 51 -116 100 -58 50 -110 95 -116 100 -6 6 -35 30 -64 55 -55 46 -131 111
-140 120 -8 8 -79 69 -145 125 -112 94 -120 103 -110 113 6 6 109 70 230 143
121 73 310 188 420 256 110 67 243 147 295 178 52 31 156 96 230 145 74 49
163 106 197 126 62 37 94 79 88 113 -2 9 -4 22 -4 29 -1 14 -41 54 -91 92 -18
14 -38 30 -45 36 -19 19 -102 54 -149 63 -63 12 -105 5 -261 -41 -77 -22 -153
-44 -170 -48 -16 -5 -115 -34 -220 -64 -104 -31 -273 -81 -375 -110 -102 -30
-318 -93 -480 -141 -162 -47 -311 -86 -330 -87 -19 0 -47 6 -61 14 -20 10
-177 135 -199 158 -3 3 -27 23 -55 45 -57 45 -78 63 -106 87 -11 9 -39 31 -61
50 -57 45 -278 225 -303 246 -191 158 -302 217 -510 268 -121 30 -322 40 -397
20z"/>
</g>
</svg>
