<svg width="400" height="200" viewBox="0 0 400 200" fill="none" xmlns="http://www.w3.org/2000/svg">
<path d="M52.5379 86.0148C52.2803 79.7042 47.6439 76.7421 41.9773 76.7421C36.8258 76.7421 31.0303 78.9315 31.0303 84.8557C31.0303 89.7496 34.5076 91.4239 39.1439 92.583L43.6515 93.6133C46.8712 94.386 49.9621 95.5451 49.9621 98.8936C49.9621 102.886 45.3258 104.431 41.9773 104.431C37.2121 104.431 33.7348 101.984 33.4773 97.2193H30C30.5152 104.303 35.1515 107.394 41.8485 107.394C47.2576 107.394 53.4394 104.947 53.4394 98.636C53.4394 93.6133 49.1894 91.1663 45.197 90.6512L40.4318 89.6209C37.9848 88.9769 34.3788 87.8178 34.3788 84.7269C34.3788 80.9921 38.1136 79.7042 41.2045 79.7042C45.197 79.7042 48.6742 81.636 48.803 86.0148H52.5379ZM82.1591 77.5148H78.6818V92.7118C78.6818 98.636 75.9773 104.303 69.9242 104.303C64.2576 104.303 62.3258 101.598 62.197 96.3178V77.5148H58.7197V96.3178C58.7197 103.015 61.553 107.394 68.8939 107.394C73.2727 107.394 77.0076 105.204 78.9394 101.341V106.621H82.1591V77.5148ZM121.955 86.0148C121.697 79.7042 117.061 76.7421 111.394 76.7421C106.242 76.7421 100.447 78.9315 100.447 84.8557C100.447 89.7496 103.924 91.4239 108.561 92.583L113.068 93.6133C116.288 94.386 119.379 95.5451 119.379 98.8936C119.379 102.886 114.742 104.431 111.394 104.431C106.629 104.431 103.152 101.984 102.894 97.2193H99.4167C99.9318 104.303 104.568 107.394 111.265 107.394C116.674 107.394 122.856 104.947 122.856 98.636C122.856 93.6133 118.606 91.1663 114.614 90.6512L109.848 89.6209C107.402 88.9769 103.795 87.8178 103.795 84.7269C103.795 80.9921 107.53 79.7042 110.621 79.7042C114.614 79.7042 118.091 81.636 118.22 86.0148H121.955ZM147.841 86.0148C147.583 79.7042 142.947 76.7421 137.28 76.7421C132.129 76.7421 126.333 78.9315 126.333 84.8557C126.333 89.7496 129.811 91.4239 134.447 92.583L138.955 93.6133C142.174 94.386 145.265 95.5451 145.265 98.8936C145.265 102.886 140.629 104.431 137.28 104.431C132.515 104.431 129.038 101.984 128.78 97.2193H125.303C125.818 104.303 130.455 107.394 137.152 107.394C142.561 107.394 148.742 104.947 148.742 98.636C148.742 93.6133 144.492 91.1663 140.5 90.6512L135.735 89.6209C133.288 88.9769 129.682 87.8178 129.682 84.7269C129.682 80.9921 133.417 79.7042 136.508 79.7042C140.5 79.7042 143.977 81.636 144.106 86.0148H147.841ZM177.848 92.9693C178.106 84.8557 174.371 76.6133 165.098 76.6133C155.826 76.6133 151.962 84.3406 151.962 91.939C151.962 100.181 155.826 107.265 165.098 107.265C172.439 107.265 176.174 103.401 177.72 96.833H174.242C173.083 101.212 170.25 104.303 165.098 104.303C158.273 104.303 155.568 98.1209 155.568 92.8406H177.848V92.9693ZM155.568 90.0072C156.083 84.7269 159.303 79.7042 165.098 79.7042C170.765 79.7042 174.114 84.7269 174.371 90.0072H155.568Z" fill="#E2001A"/>
<path d="M50.2197 54.8485C50.2197 60.5152 45.4545 63.9924 40.0455 63.9924C36.697 63.9924 33.6061 61.803 33.6061 58.3258C33.6061 52.6591 41.0758 52.6591 47.1288 51.6288C48.0303 51.5 49.7045 51.2424 50.0909 50.3409H50.2197V54.8485ZM34.8939 45.9621C35.0227 41.197 38.2424 39.2652 42.6212 39.2652C46.7424 39.2652 50.2197 40.4242 50.2197 45.1894C50.2197 48.4091 48.5455 48.7955 45.7121 49.1818C37.9848 50.0833 30 50.3409 30 58.4545C30 64.25 34.3788 66.9545 39.6591 66.9545C45.197 66.9545 47.7727 64.7652 50.2197 61.0303H50.3485C50.3485 64.1212 50.8636 66.053 54.4697 66.053C55.3712 66.053 56.0151 66.053 56.7879 65.7955V62.8333C56.5303 62.9621 56.0152 63.0909 55.6288 63.0909C54.2121 63.0909 53.5682 62.3182 53.5682 60.9015V45.447C53.5682 37.7197 48.0303 36.1742 42.8788 36.1742C36.4394 36.303 31.6742 39.2652 31.2879 45.9621H34.8939ZM68.7652 66.053H72.5L83.3182 37.0758H79.7121L70.697 62.5758H70.5682L61.4242 37.0758H57.4318L68.7652 66.053ZM120.924 54.8485C120.924 60.5152 116.159 63.9924 110.75 63.9924C107.402 63.9924 104.311 61.803 104.311 58.3258C104.311 52.6591 111.78 52.6591 117.833 51.6288C118.735 51.5 120.409 51.2424 120.795 50.3409H120.924V54.8485ZM105.598 45.9621C105.727 41.197 108.947 39.2652 113.326 39.2652C117.447 39.2652 120.924 40.4242 120.924 45.1894C120.924 48.4091 119.25 48.7955 116.417 49.1818C108.818 50.0833 100.833 50.3409 100.833 58.4545C100.833 64.25 105.212 66.9545 110.492 66.9545C116.03 66.9545 118.606 64.7652 121.053 61.0303H121.182C121.182 64.1212 121.697 66.053 125.303 66.053C126.205 66.053 126.848 66.053 127.621 65.7955V62.8333C127.364 62.9621 126.848 63.0909 126.462 63.0909C125.045 63.0909 124.402 62.3182 124.402 60.9015V45.447C124.402 37.7197 118.864 36.1742 113.712 36.1742C107.144 36.1742 102.25 39.1364 101.992 45.8333H105.598V45.9621ZM137.152 28.447H133.674V37.2045H128.652V40.1667H133.674V60C133.674 64.8939 135.22 66.5682 139.985 66.5682C141.015 66.5682 142.045 66.4394 143.076 66.4394V63.3485C142.045 63.4773 141.015 63.4773 139.985 63.4773C137.409 63.3485 137.152 61.9318 137.152 59.6136V40.1667H143.076V37.0758H137.152V28.447ZM148.227 66.053H151.705V37.0758H148.227V66.053ZM148.227 31.6667H151.705V26H148.227V31.6667ZM170.894 36.303C162.008 36.303 157.242 43.3864 157.242 51.6288C157.242 60 162.136 66.9545 170.894 66.9545C179.78 66.9545 184.545 59.8712 184.545 51.6288C184.545 43.2576 179.78 36.303 170.894 36.303ZM170.894 39.2652C177.72 39.2652 181.068 45.447 181.068 51.6288C181.068 57.8106 177.72 63.9924 170.894 63.9924C164.068 63.9924 160.72 57.8106 160.72 51.6288C160.72 45.447 164.068 39.2652 170.894 39.2652ZM189.826 66.053H193.303V49.1818C193.432 43.5152 196.78 39.2652 202.447 39.2652C208.114 39.2652 209.788 43 209.788 48.0227V66.053H213.265V47.5076C213.265 40.553 210.818 36.303 202.705 36.303C198.583 36.303 194.72 38.6212 193.432 42.0985H193.303V37.0758H189.826V66.053Z" fill="black"/>
<path d="M90.0151 106.492H93.4924V37.2037H90.0151V106.492ZM90.0151 31.7946H93.4924V26.1279H90.0151V31.7946Z" fill="#E2001A"/>
<path d="M87.9546 170.758H89.2424L90.7879 166.765H96.5833L98.1288 170.758H99.4167L94.394 157.879H92.9773L87.9546 170.758ZM93.8788 159.038L96.3258 165.606H91.303L93.8788 159.038ZM107.273 164.19C107.144 162.129 105.727 161.227 103.924 161.227C102.25 161.227 100.447 162 100.447 163.803C100.447 165.349 101.606 165.864 103.023 166.25L104.439 166.636C105.47 166.894 106.5 167.28 106.5 168.311C106.5 169.599 105.083 170.114 103.924 170.114C102.379 170.114 101.22 169.341 101.22 167.796H100.061C100.189 170.114 101.735 171.015 103.924 171.015C105.599 171.015 107.659 170.243 107.659 168.182C107.659 166.508 106.371 165.864 104.955 165.606L103.409 165.22C102.636 164.962 101.477 164.705 101.477 163.674C101.477 162.515 102.636 162.129 103.667 162.129C104.955 162.129 105.985 162.773 106.114 164.19H107.273ZM115.902 164.19C115.773 162.129 114.356 161.227 112.553 161.227C110.879 161.227 109.076 162 109.076 163.803C109.076 165.349 110.235 165.864 111.652 166.25L113.068 166.636C114.098 166.894 115.129 167.28 115.129 168.311C115.129 169.599 113.712 170.114 112.553 170.114C111.008 170.114 109.848 169.341 109.848 167.796H108.689C108.818 170.114 110.364 171.015 112.553 171.015C114.227 171.015 116.288 170.243 116.288 168.182C116.288 166.508 115 165.864 113.583 165.606L112.038 165.22C111.265 164.962 110.106 164.705 110.106 163.674C110.106 162.515 111.265 162.129 112.295 162.129C113.583 162.129 114.614 162.773 114.742 164.19H115.902ZM121.697 161.099C118.864 161.099 117.318 163.288 117.318 165.993C117.318 168.697 118.864 170.886 121.697 170.886C124.53 170.886 126.076 168.697 126.076 165.993C126.205 163.417 124.659 161.099 121.697 161.099ZM121.697 162.129C123.886 162.129 124.917 164.061 124.917 166.121C124.917 168.053 123.886 170.114 121.697 170.114C119.508 170.114 118.477 168.182 118.477 166.121C118.477 164.061 119.636 162.129 121.697 162.129ZM135.477 164.318C135.22 162.258 133.674 161.099 131.742 161.099C128.909 161.099 127.364 163.288 127.364 165.993C127.364 168.697 128.909 170.886 131.742 170.886C133.803 170.886 135.22 169.47 135.606 167.28H134.447C134.318 168.826 133.159 169.985 131.742 169.985C129.553 169.985 128.523 168.053 128.523 165.993C128.523 164.061 129.553 162 131.742 162C133.159 162 134.061 162.902 134.318 164.19H135.477V164.318ZM137.152 170.758H138.311V161.485H137.152V170.758ZM137.152 159.682H138.311V157.879H137.152V159.682ZM146.424 167.152C146.424 168.955 144.879 170.114 143.205 170.114C142.174 170.114 141.144 169.47 141.144 168.311C141.144 166.508 143.591 166.508 145.523 166.121C145.78 166.121 146.295 165.993 146.424 165.735V167.152ZM141.53 164.318C141.53 162.773 142.561 162.129 143.977 162.129C145.265 162.129 146.424 162.515 146.424 164.061C146.424 165.091 145.909 165.22 145.008 165.349C142.561 165.606 139.985 165.735 139.985 168.311C139.985 170.243 141.402 171.015 143.076 171.015C144.879 171.015 145.652 170.371 146.424 169.083C146.424 170.114 146.553 170.758 147.712 170.758C147.97 170.758 148.227 170.758 148.485 170.629V169.727C148.356 169.727 148.227 169.856 148.098 169.856C147.712 169.856 147.455 169.599 147.455 169.212V164.318C147.455 161.871 145.652 161.356 143.977 161.356C141.917 161.356 140.371 162.258 140.242 164.447H141.53V164.318ZM156.47 162.258V161.485H149.386V162.386H155.053L149 169.856V170.758H156.727V169.856H150.288L156.47 162.258ZM158.144 170.758H159.303V161.485H158.144V170.758ZM158.144 159.682H159.303V157.879H158.144V159.682ZM165.356 161.099C162.523 161.099 160.977 163.288 160.977 165.993C160.977 168.697 162.523 170.886 165.356 170.886C168.189 170.886 169.735 168.697 169.735 165.993C169.735 163.417 168.189 161.099 165.356 161.099ZM165.356 162.129C167.545 162.129 168.576 164.061 168.576 166.121C168.576 168.053 167.545 170.114 165.356 170.114C163.167 170.114 162.136 168.182 162.136 166.121C162.136 164.061 163.167 162.129 165.356 162.129ZM171.409 170.758H172.568V165.349C172.568 163.546 173.727 162.129 175.53 162.129C177.333 162.129 177.849 163.288 177.849 164.962V170.758H179.008V164.833C179.008 162.644 178.235 161.227 175.659 161.227C174.371 161.227 173.083 162 172.697 163.159V161.614H171.538V170.758H171.409ZM188.924 166.379C189.053 163.803 187.765 161.227 184.803 161.227C181.841 161.227 180.553 163.674 180.553 166.121C180.553 168.826 181.841 171.015 184.803 171.015C187.121 171.015 188.409 169.856 188.795 167.667H187.636C187.25 169.083 186.348 169.985 184.674 169.985C182.485 169.985 181.583 167.924 181.583 166.379H188.924ZM181.841 165.477C181.97 163.803 183 162.129 184.932 162.129C186.735 162.129 187.765 163.674 187.894 165.477H181.841ZM202.833 166.121C202.833 168.053 201.932 170.114 199.742 170.114C197.295 170.114 196.523 168.053 196.523 166.121C196.523 164.061 197.295 162.129 199.742 162.129C202.061 162.129 202.833 164.19 202.833 166.121ZM195.492 174.106H196.652V168.955C197.167 170.243 198.455 171.015 199.871 171.015C202.705 171.015 203.992 168.697 203.992 166.121C203.992 163.546 202.705 161.227 199.871 161.227C198.326 161.227 197.038 162 196.523 163.288V161.485H195.492V174.106ZM213.523 166.379C213.652 163.803 212.364 161.227 209.402 161.227C206.439 161.227 205.152 163.674 205.152 166.121C205.152 168.826 206.439 171.015 209.402 171.015C211.72 171.015 213.008 169.856 213.394 167.667H212.235C211.848 169.083 210.947 169.985 209.273 169.985C207.083 169.985 206.182 167.924 206.182 166.379H213.523ZM206.439 165.477C206.568 163.803 207.598 162.129 209.53 162.129C211.333 162.129 212.364 163.674 212.492 165.477H206.439ZM215.068 170.758H216.227V165.864C216.227 163.932 217.644 162.386 219.705 162.515V161.356C218.03 161.227 216.742 162.129 216.227 163.674V161.485H215.197V170.758H215.068ZM225.758 170.758H226.917V157.879H225.758V170.758ZM229.75 157.879V159.811H230.523C230.523 160.455 230.265 161.227 229.621 161.485V162.258C230.78 162 231.167 160.841 231.167 159.811V157.879H229.75ZM240.053 167.152C240.053 168.955 238.508 170.114 236.833 170.114C235.803 170.114 234.773 169.47 234.773 168.311C234.773 166.508 237.22 166.508 239.152 166.121C239.409 166.121 239.924 165.993 240.053 165.735V167.152ZM235.159 164.318C235.159 162.773 236.189 162.129 237.606 162.129C238.894 162.129 240.053 162.515 240.053 164.061C240.053 165.091 239.538 165.22 238.636 165.349C236.189 165.606 233.614 165.735 233.614 168.311C233.614 170.243 235.03 171.015 236.705 171.015C238.508 171.015 239.28 170.371 240.053 169.083C240.053 170.114 240.182 170.758 241.341 170.758C241.599 170.758 241.856 170.758 242.114 170.629V169.727C241.985 169.727 241.856 169.856 241.727 169.856C241.341 169.856 241.083 169.599 241.083 169.212V164.318C241.083 161.871 239.28 161.356 237.606 161.356C235.545 161.356 234 162.258 233.871 164.447H235.159V164.318ZM245.977 170.758H247.136L250.614 161.485H249.455L246.621 169.599L243.659 161.485H242.371L245.977 170.758ZM251.773 170.758H252.932V161.485H251.773V170.758ZM251.773 159.682H252.932V157.879H251.773V159.682ZM261.045 167.152C261.045 168.955 259.5 170.114 257.826 170.114C256.795 170.114 255.765 169.47 255.765 168.311C255.765 166.508 258.212 166.508 260.144 166.121C260.402 166.121 260.917 165.993 261.045 165.735V167.152ZM256.152 164.318C256.152 162.773 257.182 162.129 258.598 162.129C259.886 162.129 261.045 162.515 261.045 164.061C261.045 165.091 260.53 165.22 259.629 165.349C257.182 165.606 254.606 165.735 254.606 168.311C254.606 170.243 256.023 171.015 257.697 171.015C259.5 171.015 260.273 170.371 261.045 169.083C261.045 170.114 261.174 170.758 262.333 170.758C262.591 170.758 262.848 170.758 263.106 170.629V169.727C262.977 169.727 262.848 169.856 262.72 169.856C262.333 169.856 262.076 169.599 262.076 169.212V164.318C262.076 161.871 260.273 161.356 258.598 161.356C256.538 161.356 254.992 162.258 254.864 164.447H256.152V164.318ZM271.091 162.258V161.485H264.008V162.386H269.674L263.621 169.856V170.758H271.348V169.856H264.909L271.091 162.258ZM272.765 170.758H273.924V161.485H272.765V170.758ZM272.765 159.682H273.924V157.879H272.765V159.682ZM279.977 161.099C277.144 161.099 275.598 163.288 275.598 165.993C275.598 168.697 277.144 170.886 279.977 170.886C282.811 170.886 284.356 168.697 284.356 165.993C284.356 163.417 282.811 161.099 279.977 161.099ZM279.977 162.129C282.167 162.129 283.197 164.061 283.197 166.121C283.197 168.053 282.167 170.114 279.977 170.114C277.788 170.114 276.758 168.182 276.758 166.121C276.758 164.061 277.788 162.129 279.977 162.129ZM286.03 170.758H287.189V165.349C287.189 163.546 288.348 162.129 290.152 162.129C291.955 162.129 292.47 163.288 292.47 164.962V170.758H293.629V164.833C293.629 162.644 292.856 161.227 290.28 161.227C288.992 161.227 287.705 162 287.318 163.159V161.614H286.159V170.758H286.03ZM303.545 166.379C303.674 163.803 302.386 161.227 299.424 161.227C296.462 161.227 295.174 163.674 295.174 166.121C295.174 168.826 296.462 171.015 299.424 171.015C301.742 171.015 303.03 169.856 303.417 167.667H302.258C301.871 169.083 300.97 169.985 299.295 169.985C297.106 169.985 296.205 167.924 296.205 166.379H303.545ZM296.333 165.477C296.462 163.803 297.492 162.129 299.424 162.129C301.227 162.129 302.258 163.674 302.386 165.477H296.333ZM316.682 164.19C316.553 162.129 315.136 161.227 313.333 161.227C311.659 161.227 309.856 162 309.856 163.803C309.856 165.349 311.015 165.864 312.432 166.25L313.848 166.636C314.879 166.894 315.909 167.28 315.909 168.311C315.909 169.599 314.492 170.114 313.333 170.114C311.788 170.114 310.629 169.341 310.629 167.796H309.47C309.598 170.114 311.144 171.015 313.333 171.015C315.008 171.015 317.068 170.243 317.068 168.182C317.068 166.508 315.78 165.864 314.364 165.606L312.818 165.22C312.045 164.962 310.886 164.705 310.886 163.674C310.886 162.515 312.045 162.129 313.076 162.129C314.364 162.129 315.394 162.773 315.523 164.19H316.682ZM321.189 170.758H322.348L325.826 161.485H324.667L321.833 169.599L318.871 161.485H317.583L321.189 170.758ZM326.985 170.758H328.144V161.485H326.985V170.758ZM326.985 159.682H328.144V157.879H326.985V159.682ZM337.03 162.258V161.485H329.947V162.386H335.614L329.561 169.856V170.758H337.288V169.856H330.848L337.03 162.258ZM345.402 162.258V161.485H338.318V162.386H343.985L337.932 169.856V170.758H345.659V169.856H339.22L345.402 162.258ZM354.803 166.379C354.932 163.803 353.773 161.227 350.682 161.227C347.72 161.227 346.432 163.674 346.432 166.121C346.432 168.826 347.72 171.015 350.682 171.015C353 171.015 354.288 169.856 354.674 167.667H353.515C353.129 169.083 352.227 169.985 350.553 169.985C348.364 169.985 347.462 167.924 347.462 166.379H354.803ZM347.591 165.477C347.72 163.803 348.75 162.129 350.682 162.129C352.485 162.129 353.515 163.674 353.644 165.477H347.591ZM356.348 170.758H357.508V165.864C357.508 163.932 358.924 162.386 360.985 162.515V161.356C359.311 161.227 358.023 162.129 357.508 163.674V161.485H356.477V170.758H356.348ZM367.939 167.152C367.939 168.955 366.394 170.114 364.72 170.114C363.689 170.114 362.659 169.47 362.659 168.311C362.659 166.508 365.106 166.508 367.038 166.121C367.295 166.121 367.811 165.993 367.939 165.735V167.152ZM363.045 164.318C363.045 162.773 364.076 162.129 365.492 162.129C366.78 162.129 367.939 162.515 367.939 164.061C367.939 165.091 367.424 165.22 366.523 165.349C364.076 165.606 361.5 165.735 361.5 168.311C361.5 170.243 362.917 171.015 364.591 171.015C366.394 171.015 367.167 170.371 367.939 169.083C367.939 170.114 368.068 170.758 369.227 170.758C369.485 170.758 369.742 170.758 370 170.629V169.727C369.871 169.727 369.742 169.856 369.614 169.856C369.227 169.856 368.97 169.599 368.97 169.212V164.318C368.97 161.871 367.167 161.356 365.492 161.356C363.432 161.356 361.886 162.258 361.758 164.447H363.045V164.318Z" fill="black"/>
<path d="M87.9546 150.538H89.2424L90.7879 146.546H96.5833L98.1288 150.538H99.4167L94.394 137.659H92.9773L87.9546 150.538ZM93.8788 138.818L96.3258 145.386H91.303L93.8788 138.818ZM107.273 143.97C107.144 141.909 105.727 141.008 103.924 141.008C102.25 141.008 100.447 141.78 100.447 143.583C100.447 145.129 101.606 145.644 103.023 146.03L104.439 146.417C105.47 146.674 106.5 147.061 106.5 148.091C106.5 149.379 105.083 149.894 103.924 149.894C102.379 149.894 101.22 149.121 101.22 147.576H100.061C100.189 149.894 101.735 150.796 103.924 150.796C105.599 150.796 107.659 150.023 107.659 147.962C107.659 146.288 106.371 145.644 104.955 145.386L103.409 145C102.636 144.743 101.477 144.485 101.477 143.455C101.477 142.296 102.636 141.909 103.667 141.909C104.955 141.909 105.985 142.553 106.114 143.97H107.273ZM115.902 143.97C115.773 141.909 114.356 141.008 112.553 141.008C110.879 141.008 109.076 141.78 109.076 143.583C109.076 145.129 110.235 145.644 111.652 146.03L113.068 146.417C114.098 146.674 115.129 147.061 115.129 148.091C115.129 149.379 113.712 149.894 112.553 149.894C111.008 149.894 109.848 149.121 109.848 147.576H108.689C108.818 149.894 110.364 150.796 112.553 150.796C114.227 150.796 116.288 150.023 116.288 147.962C116.288 146.288 115 145.644 113.583 145.386L112.038 145C111.265 144.743 110.106 144.485 110.106 143.455C110.106 142.296 111.265 141.909 112.295 141.909C113.583 141.909 114.614 142.553 114.742 143.97H115.902ZM121.697 140.879C118.864 140.879 117.318 143.068 117.318 145.773C117.318 148.477 118.864 150.667 121.697 150.667C124.53 150.667 126.076 148.477 126.076 145.773C126.205 143.197 124.659 140.879 121.697 140.879ZM121.697 141.909C123.886 141.909 124.917 143.841 124.917 145.902C124.917 147.833 123.886 149.894 121.697 149.894C119.508 149.894 118.477 147.962 118.477 145.902C118.477 143.841 119.636 141.909 121.697 141.909ZM135.477 144.099C135.22 142.038 133.674 140.879 131.742 140.879C128.909 140.879 127.364 143.068 127.364 145.773C127.364 148.477 128.909 150.667 131.742 150.667C133.803 150.667 135.22 149.25 135.606 147.061H134.447C134.318 148.606 133.159 149.765 131.742 149.765C129.553 149.765 128.523 147.833 128.523 145.773C128.523 143.841 129.553 141.78 131.742 141.78C133.159 141.78 134.061 142.682 134.318 143.97H135.477V144.099ZM137.152 150.538H138.311V141.265H137.152V150.538ZM137.152 139.462H138.311V137.659H137.152V139.462ZM146.424 146.932C146.424 148.735 144.879 149.894 143.205 149.894C142.174 149.894 141.144 149.25 141.144 148.091C141.144 146.288 143.591 146.288 145.523 145.902C145.78 145.902 146.295 145.773 146.424 145.515V146.932ZM141.53 144.099C141.53 142.553 142.561 141.909 143.977 141.909C145.265 141.909 146.424 142.296 146.424 143.841C146.424 144.871 145.909 145 145.008 145.129C142.561 145.386 139.985 145.515 139.985 148.091C139.985 150.023 141.402 150.796 143.076 150.796C144.879 150.796 145.652 150.152 146.424 148.864C146.424 149.894 146.553 150.538 147.712 150.538C147.97 150.538 148.227 150.538 148.485 150.409V149.508C148.356 149.508 148.227 149.636 148.098 149.636C147.712 149.636 147.455 149.379 147.455 148.993V144.099C147.455 141.652 145.652 141.136 143.977 141.136C141.917 141.136 140.371 142.038 140.242 144.227H141.53V144.099ZM151.576 138.432H150.417V141.265H148.742V142.167H150.417V148.477C150.417 150.023 150.932 150.538 152.477 150.538C152.864 150.538 153.121 150.538 153.508 150.538V149.636C153.121 149.636 152.864 149.636 152.477 149.636C151.705 149.636 151.576 149.121 151.576 148.477V142.167H153.508V141.265H151.576V138.432ZM155.182 150.538H156.341V141.265H155.182V150.538ZM155.182 139.462H156.341V137.659H155.182V139.462ZM162.394 140.879C159.561 140.879 158.015 143.068 158.015 145.773C158.015 148.477 159.561 150.667 162.394 150.667C165.227 150.667 166.773 148.477 166.773 145.773C166.773 143.197 165.227 140.879 162.394 140.879ZM162.394 141.909C164.583 141.909 165.614 143.841 165.614 145.902C165.614 147.833 164.583 149.894 162.394 149.894C160.205 149.894 159.174 147.962 159.174 145.902C159.174 143.841 160.205 141.909 162.394 141.909ZM168.447 150.538H169.606V145.129C169.606 143.326 170.765 141.909 172.568 141.909C174.371 141.909 174.886 143.068 174.886 144.743V150.538H176.045V144.485C176.045 142.296 175.273 140.879 172.697 140.879C171.409 140.879 170.121 141.652 169.735 142.811V141.265H168.576V150.538H168.447ZM190.598 145.902C190.598 147.833 189.697 149.894 187.508 149.894C185.061 149.894 184.288 147.833 184.288 145.902C184.288 143.841 185.061 141.909 187.508 141.909C189.697 141.909 190.598 143.97 190.598 145.902ZM183.129 153.886H184.288V148.735C184.803 150.023 186.091 150.796 187.508 150.796C190.341 150.796 191.629 148.477 191.629 145.902C191.629 143.326 190.341 141.008 187.508 141.008C185.962 141.008 184.674 141.78 184.159 143.068V141.265H183.129V153.886ZM197.424 140.879C194.591 140.879 193.045 143.068 193.045 145.773C193.045 148.477 194.591 150.667 197.424 150.667C200.258 150.667 201.803 148.477 201.803 145.773C201.803 143.197 200.258 140.879 197.424 140.879ZM197.424 141.909C199.614 141.909 200.644 143.841 200.644 145.902C200.644 147.833 199.614 149.894 197.424 149.894C195.235 149.894 194.205 147.962 194.205 145.902C194.076 143.841 195.235 141.909 197.424 141.909ZM210.947 141.265H209.788V146.159C209.788 148.091 208.886 149.894 206.955 149.894C205.152 149.894 204.508 148.993 204.508 147.318V141.265H203.349V147.318C203.349 149.508 204.25 150.796 206.568 150.796C207.985 150.796 209.144 150.152 209.788 148.864V150.538H210.818V141.265H210.947ZM213.136 150.538H214.295V145.644C214.295 143.712 215.712 142.167 217.773 142.296V141.136C216.098 141.008 214.811 141.909 214.295 143.455V141.265H213.265V150.538H213.136ZM223.826 150.538H224.985V137.659H223.826V150.538ZM227.818 137.659V139.591H228.591C228.591 140.235 228.333 141.008 227.689 141.265V142.038C228.72 141.78 229.235 140.621 229.235 139.591V137.659H227.818ZM237.992 146.932C237.992 148.735 236.447 149.894 234.773 149.894C233.742 149.894 232.712 149.25 232.712 148.091C232.712 146.288 235.159 146.288 237.091 145.902C237.348 145.902 237.864 145.773 237.992 145.515V146.932ZM233.098 144.099C233.098 142.553 234.129 141.909 235.545 141.909C236.833 141.909 237.992 142.296 237.992 143.841C237.992 144.871 237.477 145 236.576 145.129C234.129 145.386 231.553 145.515 231.553 148.091C231.553 150.023 232.97 150.796 234.644 150.796C236.447 150.796 237.22 150.152 237.992 148.864C237.992 149.894 238.121 150.538 239.28 150.538C239.538 150.538 239.795 150.538 240.053 150.409V149.508C239.924 149.508 239.795 149.636 239.667 149.636C239.28 149.636 239.023 149.379 239.023 148.993V144.099C239.023 141.652 237.22 141.136 235.545 141.136C233.485 141.136 231.939 142.038 231.811 144.227H233.098V144.099ZM243.917 150.538H245.076L248.553 141.265H247.394L244.561 149.379L241.598 141.265H240.311L243.917 150.538ZM249.712 150.538H250.871V141.265H249.712V150.538ZM249.712 139.462H250.871V137.659H249.712V139.462ZM258.985 146.932C258.985 148.735 257.439 149.894 255.765 149.894C254.735 149.894 253.705 149.25 253.705 148.091C253.705 146.288 256.152 146.288 258.083 145.902C258.341 145.902 258.856 145.773 258.985 145.515V146.932ZM254.091 144.099C254.091 142.553 255.121 141.909 256.538 141.909C257.826 141.909 258.985 142.296 258.985 143.841C258.985 144.871 258.47 145 257.568 145.129C255.121 145.386 252.545 145.515 252.545 148.091C252.545 150.023 253.962 150.796 255.636 150.796C257.439 150.796 258.212 150.152 258.985 148.864C258.985 149.894 259.114 150.538 260.273 150.538C260.53 150.538 260.788 150.538 261.045 150.409V149.508C260.917 149.508 260.788 149.636 260.659 149.636C260.273 149.636 260.015 149.379 260.015 148.993V144.099C260.015 141.652 258.212 141.136 256.538 141.136C254.477 141.136 252.932 142.038 252.803 144.227H254.091V144.099ZM264.136 138.432H263.106V141.265H261.432V142.167H263.106V148.477C263.106 150.023 263.621 150.538 265.167 150.538C265.553 150.538 265.811 150.538 266.197 150.538V149.636C265.811 149.636 265.553 149.636 265.167 149.636C264.394 149.636 264.265 149.121 264.265 148.477V142.167H266.197V141.265H264.265V138.432H264.136ZM267.742 150.538H268.902V141.265H267.742V150.538ZM267.742 139.462H268.902V137.659H267.742V139.462ZM274.955 140.879C272.121 140.879 270.576 143.068 270.576 145.773C270.576 148.477 272.121 150.667 274.955 150.667C277.788 150.667 279.333 148.477 279.333 145.773C279.333 143.197 277.788 140.879 274.955 140.879ZM274.955 141.909C277.144 141.909 278.174 143.841 278.174 145.902C278.174 147.833 277.144 149.894 274.955 149.894C272.765 149.894 271.735 147.962 271.735 145.902C271.735 143.841 272.765 141.909 274.955 141.909ZM281.008 150.538H282.167V145.129C282.167 143.326 283.326 141.909 285.129 141.909C286.932 141.909 287.447 143.068 287.447 144.743V150.538H288.606V144.485C288.606 142.296 287.833 140.879 285.258 140.879C283.97 140.879 282.682 141.652 282.295 142.811V141.265H281.136V150.538H281.008ZM302.386 143.97C302.258 141.909 300.841 141.008 299.038 141.008C297.364 141.008 295.561 141.78 295.561 143.583C295.561 145.129 296.72 145.644 298.136 146.03L299.553 146.417C300.583 146.674 301.614 147.061 301.614 148.091C301.614 149.379 300.197 149.894 299.038 149.894C297.492 149.894 296.333 149.121 296.333 147.576H295.174C295.303 149.894 296.848 150.796 299.038 150.796C300.712 150.796 302.773 150.023 302.773 147.962C302.773 146.288 301.485 145.644 300.197 145.386L298.652 145C297.879 144.743 296.72 144.485 296.72 143.455C296.72 142.296 297.879 141.909 298.909 141.909C300.197 141.909 301.227 142.553 301.356 143.97H302.386ZM311.788 141.265H310.758V146.159C310.758 148.091 309.856 149.894 307.924 149.894C306.121 149.894 305.477 148.993 305.477 147.318V141.265H304.318V147.318C304.318 149.508 305.22 150.796 307.538 150.796C308.955 150.796 310.114 150.152 310.758 148.864V150.538H311.788V141.265ZM313.977 150.538H315.136V141.265H313.977V150.538ZM313.977 139.462H315.136V137.659H313.977V139.462ZM324.023 143.97C323.894 141.909 322.477 141.008 320.674 141.008C319 141.008 317.197 141.78 317.197 143.583C317.197 145.129 318.356 145.644 319.773 146.03L321.189 146.417C322.22 146.674 323.25 147.061 323.25 148.091C323.25 149.379 321.833 149.894 320.674 149.894C319.129 149.894 317.97 149.121 317.97 147.576H316.811C316.939 149.894 318.485 150.796 320.674 150.796C322.348 150.796 324.409 150.023 324.409 147.962C324.409 146.288 323.121 145.644 321.705 145.386L320.159 145C319.386 144.743 318.227 144.485 318.227 143.455C318.227 142.296 319.386 141.909 320.417 141.909C321.705 141.909 322.735 142.553 322.864 143.97H324.023ZM332.652 143.97C332.523 141.909 331.106 141.008 329.303 141.008C327.629 141.008 325.826 141.78 325.826 143.583C325.826 145.129 326.985 145.644 328.402 146.03L329.818 146.417C330.848 146.674 331.879 147.061 331.879 148.091C331.879 149.379 330.462 149.894 329.303 149.894C327.758 149.894 326.598 149.121 326.598 147.576H325.439C325.568 149.894 327.114 150.796 329.303 150.796C330.977 150.796 333.038 150.023 333.038 147.962C333.038 146.288 331.75 145.644 330.333 145.386L328.788 145C328.015 144.743 326.856 144.485 326.856 143.455C326.856 142.296 328.015 141.909 329.045 141.909C330.333 141.909 331.364 142.553 331.492 143.97H332.652ZM342.439 146.159C342.568 143.583 341.409 141.008 338.318 141.008C335.356 141.008 334.068 143.455 334.068 145.902C334.068 148.606 335.356 150.796 338.318 150.796C340.636 150.796 341.924 149.636 342.311 147.447H341.152C340.765 148.864 339.864 149.765 338.189 149.765C336 149.765 335.098 147.705 335.098 146.159H342.439ZM335.227 145.258C335.356 143.583 336.386 141.909 338.318 141.909C340.121 141.909 341.152 143.455 341.28 145.258H335.227Z" fill="black"/>
<path d="M92.7196 130.19H94.1363L98.9015 117.312H97.6136L93.4924 128.774L89.3712 117.44H88.0833L92.7196 130.19ZM106.758 125.94C106.886 123.365 105.727 120.789 102.636 120.789C99.6742 120.789 98.3863 123.236 98.3863 125.683C98.3863 128.387 99.6742 130.577 102.636 130.577C104.954 130.577 106.242 129.418 106.629 127.228H105.47C105.083 128.645 104.182 129.546 102.508 129.546C100.318 129.546 99.4166 127.486 99.4166 125.94H106.758ZM99.5454 124.91C99.6742 123.236 100.704 121.562 102.636 121.562C104.439 121.562 105.47 123.107 105.598 124.91H99.5454ZM108.174 130.19H109.333V125.296C109.333 123.365 110.75 121.819 112.811 121.948V120.789C111.136 120.66 109.848 121.562 109.333 123.107V120.918H108.303V130.19H108.174ZM121.311 125.554C121.311 127.486 120.409 129.546 118.22 129.546C115.773 129.546 115 127.486 115 125.554C115 123.622 115.901 121.562 118.22 121.562C120.409 121.69 121.311 123.751 121.311 125.554ZM113.841 130.19H114.871V128.387C115.386 129.675 116.674 130.448 118.22 130.448C121.053 130.448 122.341 128.13 122.341 125.554C122.341 122.978 121.053 120.66 118.22 120.66C116.803 120.66 115.515 121.304 115 122.721V117.44H113.841V130.19ZM130.197 126.713C130.197 128.516 128.651 129.675 126.977 129.675C125.947 129.675 124.917 129.031 124.917 127.872C124.917 126.069 127.364 126.069 129.295 125.683C129.553 125.683 130.068 125.554 130.197 125.296V126.713ZM125.174 123.88C125.174 122.334 126.204 121.69 127.621 121.69C128.909 121.69 130.068 122.077 130.068 123.622C130.068 124.652 129.553 124.781 128.651 124.91C126.204 125.168 123.629 125.296 123.629 127.872C123.629 129.804 125.045 130.577 126.72 130.577C128.523 130.577 129.295 129.933 130.068 128.645C130.068 129.675 130.197 130.319 131.356 130.319C131.614 130.319 131.871 130.319 132.129 130.19V129.289C132 129.289 131.871 129.418 131.742 129.418C131.356 129.418 131.098 129.16 131.098 128.774V123.88C131.098 121.433 129.295 120.918 127.621 120.918C125.561 120.918 124.015 121.819 123.886 124.008H125.174V123.88ZM133.545 130.19H134.704V124.781C134.704 122.978 135.864 121.562 137.667 121.562C139.47 121.562 139.985 122.721 139.985 124.395V130.19H141.144V124.266C141.144 122.077 140.371 120.66 137.795 120.66C136.508 120.66 135.22 121.433 134.833 122.463V120.918H133.674V130.19H133.545ZM143.977 125.554C143.977 123.622 144.879 121.562 147.068 121.562C149.515 121.562 150.288 123.622 150.288 125.554C150.288 127.486 149.386 129.546 147.068 129.546C144.75 129.546 143.977 127.486 143.977 125.554ZM151.318 117.44H150.159V122.721C149.644 121.433 148.356 120.66 146.939 120.66C144.106 120.66 142.818 122.978 142.818 125.554C142.818 128.13 144.106 130.448 146.939 130.448C148.227 130.448 149.773 129.675 150.288 128.387V130.19H151.318V117.44ZM162.136 120.918H160.333V120.145C160.333 119.115 160.333 118.342 161.621 118.342C161.879 118.342 162.136 118.342 162.394 118.471V117.44C162.008 117.44 161.75 117.312 161.492 117.312C159.689 117.312 159.174 118.471 159.303 120.016V120.918H157.5V121.819H159.045V130.19H160.204V121.819H162.008V120.918H162.136ZM169.091 119.372V117.569H167.932V119.372H169.091ZM165.871 119.372V117.569H164.712V119.372H165.871ZM170.636 120.918H169.477V125.812C169.477 127.743 168.576 129.546 166.644 129.546C164.841 129.546 164.197 128.645 164.197 126.971V120.918H163.038V126.971C163.038 129.16 163.939 130.448 166.258 130.448C167.674 130.448 168.833 129.804 169.477 128.516V130.19H170.508V120.918H170.636ZM172.826 130.19H173.985V125.296C173.985 123.365 175.401 121.819 177.462 121.948V120.789C175.788 120.66 174.5 121.562 173.985 123.107V120.918H172.954V130.19H172.826ZM184.159 125.554C184.159 123.622 185.061 121.562 187.25 121.562C189.697 121.562 190.47 123.622 190.47 125.554C190.47 127.486 189.568 129.546 187.25 129.546C185.061 129.546 184.159 127.486 184.159 125.554ZM191.629 117.44H190.47V122.721C189.954 121.433 188.667 120.66 187.25 120.66C184.417 120.66 183.129 122.978 183.129 125.554C183.129 128.13 184.417 130.448 187.25 130.448C188.538 130.448 190.083 129.675 190.598 128.387V130.19H191.629V117.44ZM193.818 130.19H194.977V120.918H193.818V130.19ZM193.818 119.243H194.977V117.44H193.818V119.243ZM204.894 125.94C205.023 123.365 203.735 120.789 200.773 120.789C197.811 120.789 196.523 123.236 196.523 125.683C196.523 128.387 197.811 130.577 200.773 130.577C203.091 130.577 204.379 129.418 204.765 127.228H203.606C203.22 128.645 202.318 129.546 200.644 129.546C198.454 129.546 197.553 127.486 197.553 125.94H204.894ZM197.811 124.91C197.939 123.236 198.97 121.562 200.901 121.562C202.704 121.562 203.735 123.107 203.864 124.91H197.811ZM211.076 126.069C210.947 129.16 213.136 130.577 216.227 130.577C220.735 130.577 221.121 127.743 221.121 126.971C221.121 124.91 219.576 124.137 217.773 123.622L214.682 122.849C213.651 122.592 212.75 122.077 212.75 120.918C212.75 118.986 214.295 118.342 215.97 118.342C217.773 118.342 219.447 119.372 219.447 121.304H220.606C220.606 118.728 218.417 117.312 215.841 117.312C212.235 117.312 211.462 119.63 211.462 120.918C211.462 122.978 212.879 123.622 214.295 124.008L217.129 124.652C218.288 124.91 219.833 125.554 219.833 126.971C219.833 128.902 217.773 129.546 216.485 129.546C214.167 129.546 212.235 128.774 212.235 126.069H211.076ZM230.394 123.88C230.136 121.819 228.591 120.66 226.659 120.66C223.826 120.66 222.28 122.849 222.28 125.554C222.28 128.258 223.826 130.448 226.659 130.448C228.72 130.448 230.136 129.031 230.523 126.842H229.364C229.235 128.387 228.076 129.546 226.659 129.546C224.47 129.546 223.439 127.615 223.439 125.554C223.439 123.622 224.47 121.562 226.659 121.562C228.076 121.562 228.977 122.463 229.235 123.751H230.394V123.88ZM232.068 130.19H233.227V124.781C233.227 122.978 234.386 121.562 236.189 121.562C237.992 121.562 238.508 122.721 238.508 124.395V130.19H239.667V124.266C239.667 122.077 238.894 120.66 236.318 120.66C235.03 120.66 233.742 121.433 233.356 122.463V117.312H232.197V130.19H232.068ZM243.788 130.19H245.076L247.394 122.334L249.712 130.19H251L253.962 120.918H252.803L250.485 128.902L248.167 120.918H246.879L244.561 128.902L242.242 120.918H241.083L243.788 130.19ZM262.848 125.94C262.977 123.365 261.689 120.789 258.727 120.789C255.765 120.789 254.477 123.236 254.477 125.683C254.477 128.387 255.765 130.577 258.727 130.577C261.045 130.577 262.333 129.418 262.72 127.228H261.561C261.174 128.645 260.273 129.546 258.598 129.546C256.409 129.546 255.508 127.486 255.508 125.94H262.848ZM255.765 124.91C255.894 123.236 256.924 121.562 258.856 121.562C260.659 121.562 261.689 123.107 261.818 124.91H255.765ZM264.394 130.19H265.553V120.918H264.394V130.19ZM264.394 119.243H265.553V117.44H264.394V119.243ZM274.439 121.819V121.046H267.356V121.948H273.023L266.97 129.418V130.319H274.697V129.418H268.258L274.439 121.819ZM283.841 125.94C283.97 123.365 282.682 120.789 279.72 120.789C276.757 120.789 275.47 123.236 275.47 125.683C275.47 128.387 276.757 130.577 279.72 130.577C282.038 130.577 283.326 129.418 283.712 127.228H282.553C282.167 128.645 281.265 129.546 279.591 129.546C277.401 129.546 276.5 127.486 276.5 125.94H283.841ZM276.758 124.91C276.886 123.236 277.917 121.562 279.848 121.562C281.651 121.562 282.682 123.107 282.811 124.91H276.758ZM285.386 130.19H286.545V125.296C286.545 123.365 287.962 121.819 290.023 121.948V120.789C288.348 120.66 287.061 121.562 286.545 123.107V120.918H285.515V130.19H285.386ZM296.333 130.19H304.704V129.16H297.492V117.44H296.333V130.19ZM313.204 120.918H312.045V125.812C312.045 127.743 311.144 129.546 309.212 129.546C307.409 129.546 306.765 128.645 306.765 126.971V120.918H305.606V126.971C305.606 129.16 306.508 130.448 308.826 130.448C310.242 130.448 311.401 129.804 312.045 128.516V130.19H313.076V120.918H313.204ZM319 120.918H317.197V120.145C317.197 119.115 317.197 118.342 318.485 118.342C318.742 118.342 319 118.342 319.258 118.471V117.44C318.871 117.44 318.614 117.312 318.356 117.312C316.553 117.312 316.038 118.471 316.167 120.016V120.918H314.621V121.819H316.167V130.19H317.326V121.819H319.129V120.918H319ZM321.833 118.213H320.674V121.046H319V121.948H320.674V128.258C320.674 129.804 321.189 130.319 322.735 130.319C323.121 130.319 323.379 130.319 323.765 130.319V129.289C323.379 129.289 323.121 129.289 322.735 129.289C321.962 129.289 321.833 128.774 321.833 128.001V121.69H323.765V120.789H321.833V118.213ZM328.917 120.918H327.114V120.145C327.114 119.115 327.114 118.342 328.401 118.342C328.659 118.342 328.917 118.342 329.174 118.471V117.44C328.788 117.44 328.53 117.312 328.273 117.312C326.47 117.312 325.954 118.471 326.083 120.016V120.918H324.538V121.819H326.083V130.19H327.242V121.819H329.045V120.918H328.917ZM336 126.713C336 128.516 334.454 129.675 332.78 129.675C331.75 129.675 330.72 129.031 330.72 127.872C330.72 126.069 333.167 126.069 335.098 125.683C335.356 125.683 335.871 125.554 336 125.296V126.713ZM330.977 123.88C330.977 122.334 332.008 121.69 333.424 121.69C334.712 121.69 335.871 122.077 335.871 123.622C335.871 124.652 335.356 124.781 334.454 124.91C332.007 125.168 329.432 125.296 329.432 127.872C329.432 129.804 330.848 130.577 332.523 130.577C334.326 130.577 335.098 129.933 335.871 128.645C335.871 129.675 336 130.319 337.159 130.319C337.417 130.319 337.674 130.319 337.932 130.19V129.289C337.803 129.289 337.674 129.418 337.545 129.418C337.159 129.418 336.901 129.16 336.901 128.774V123.88C336.901 121.433 335.098 120.918 333.424 120.918C331.364 120.918 329.818 121.819 329.689 124.008H330.977V123.88ZM339.348 130.19H340.508V124.781C340.508 122.978 341.667 121.562 343.47 121.562C345.273 121.562 345.788 122.721 345.788 124.395V130.19H346.947V124.266C346.947 122.077 346.174 120.66 343.598 120.66C342.311 120.66 341.023 121.433 340.636 122.463V117.312H339.477V130.19H339.348ZM349.008 130.19H350.167V125.296C350.167 123.365 351.583 121.819 353.644 121.948V120.789C351.97 120.66 350.682 121.562 350.167 123.107V120.918H349.136V130.19H349.008ZM356.477 118.213H355.318V121.046H353.644V121.948H355.318V128.258C355.318 129.804 355.833 130.319 357.379 130.319C357.765 130.319 358.023 130.319 358.409 130.319V129.289C358.023 129.289 357.765 129.289 357.379 129.289C356.606 129.289 356.477 128.774 356.477 128.001V121.69H358.409V120.789H356.477V118.213Z" fill="black"/>
<path d="M192.53 75.583H202.833V85.7573H213.008V95.9315H202.833V106.106H192.53V95.9315H182.356V85.7573H192.53V75.583Z" stroke="#E2001A" stroke-width="0.6"/>
</svg>
