<svg width="400" height="200" viewBox="0 0 400 200" fill="none" xmlns="http://www.w3.org/2000/svg">
<path d="M27.2706 111.816H25L35.267 135.855L43.2635 116.16L51.3092 135.855L61.6256 111.816H59.355L51.4573 130.524L43.3622 110.582L35.3164 130.524L27.2706 111.816ZM84.973 123.416C85.0228 116.851 80.9256 111.323 74.0151 111.323C67.3514 111.323 62.9583 116.802 62.9583 123.169C62.9583 129.636 67.2527 135.115 74.0151 135.115C78.5069 135.115 82.1598 132.893 84.233 128.945L82.357 127.858C80.7281 130.919 77.8652 133.041 74.3113 133.041C69.0297 133.041 65.0315 129.191 65.1795 123.416L84.973 123.416ZM65.1795 121.343C65.5744 117.049 69.4245 113.396 74.0645 113.396C78.7537 113.396 82.209 117.147 82.7518 121.343H65.1795ZM92.0806 93.8985H89.8594V134.621H92.0806V93.8985ZM101.656 113.89H105.655V111.816H101.656V103.672H99.435V111.816H96.9178V113.89H99.435V134.621H101.656V113.89ZM118.637 111.323C112.022 111.323 106.79 116.703 106.79 123.268C106.79 129.735 112.071 135.115 118.637 135.115C125.349 135.115 130.631 129.981 130.631 123.219C130.631 116.456 125.349 111.323 118.637 111.323ZM118.488 113.396C124.116 113.396 128.41 117.641 128.41 123.268C128.41 128.796 124.066 133.041 118.488 133.041C113.108 133.041 109.011 128.451 109.011 123.268C109.011 117.986 113.059 113.396 118.488 113.396ZM137.739 113.89H143.464V111.816H137.739V102.043C137.739 99.1801 137.788 95.33 141.638 95.33C142.28 95.33 142.872 95.5274 143.464 95.6261V93.6024C142.823 93.3556 142.181 93.2568 141.49 93.2568C139.417 93.2568 137.443 94.1947 136.406 96.021C135.567 97.5018 135.517 99.9206 135.517 101.599V111.816H133V113.89H135.517V134.621H137.739V113.89ZM150.068 113.89H155.793V111.816H150.068V102.043C150.068 99.1801 150.117 95.33 153.967 95.33C154.608 95.33 155.201 95.5274 155.793 95.6261V93.6024C155.152 93.3556 154.51 93.2568 153.818 93.2568C151.745 93.2568 149.771 94.1947 148.734 96.021C147.895 97.5018 147.846 99.9206 147.846 101.599V111.816H145.329V113.89H147.846V134.621H150.068V113.89ZM178.992 123.416C179.041 116.851 174.945 111.323 168.034 111.323C161.371 111.323 156.977 116.802 156.977 123.169C156.977 129.636 161.272 135.115 168.034 135.115C172.526 135.115 176.178 132.893 178.251 128.945L176.376 127.858C174.747 130.919 171.884 133.041 168.33 133.041C163.049 133.041 159.051 129.191 159.199 123.416L178.992 123.416ZM159.199 121.343C159.593 117.049 163.444 113.396 168.083 113.396C172.773 113.396 176.228 117.147 176.771 121.343H159.199ZM186.1 111.816H183.878V134.621H186.1V123.367C186.1 118.727 187.037 113.396 192.763 113.396C197.749 113.396 198.243 116.752 198.243 120.849V134.621H200.464V120.849C200.464 114.976 198.835 111.323 192.961 111.323C189.999 111.323 187.531 112.853 186.199 115.37H186.1V111.816ZM227.365 123.416C227.414 116.851 223.317 111.323 216.407 111.323C209.743 111.323 205.35 116.802 205.35 123.169C205.35 129.636 209.644 135.115 216.407 135.115C220.899 135.115 224.551 132.893 226.624 128.945L224.748 127.858C223.12 130.919 220.257 133.041 216.703 133.041C211.421 133.041 207.423 129.191 207.571 123.416L227.365 123.416ZM207.571 121.343C207.966 117.049 211.816 113.396 216.456 113.396C221.145 113.396 224.6 117.147 225.143 121.343H207.571ZM243.752 114.976C242.765 112.853 240.248 111.323 237.928 111.323C234.621 111.323 231.708 113.643 231.708 117.098C231.708 120.948 235.262 122.281 238.372 123.416C240.642 124.206 242.815 125.094 242.815 127.908C242.815 130.771 240.544 133.041 237.681 133.041C234.67 133.041 232.843 131.116 232.005 128.401L229.833 129.093C230.77 132.795 233.88 135.115 237.681 135.115C241.778 135.115 245.036 132.203 245.036 128.006C245.036 119.763 233.93 122.429 233.93 116.95C233.93 114.976 235.904 113.396 237.829 113.396C239.606 113.396 241.087 114.383 241.827 115.963L243.752 114.976ZM266.113 132.548L284.722 111.816H264.434V113.89H280.082L261.423 134.621H284.623V132.548H266.113ZM291.533 101.352C290.447 101.352 289.558 102.241 289.558 103.326C289.558 104.412 290.447 105.301 291.533 105.301C292.619 105.301 293.508 104.412 293.508 103.326C293.508 102.241 292.619 101.352 291.533 101.352ZM300.764 101.352C299.677 101.352 298.789 102.241 298.789 103.326C298.789 104.412 299.677 105.301 300.764 105.301C301.849 105.301 302.738 104.412 302.738 103.326C302.738 102.241 301.849 101.352 300.764 101.352ZM302.096 111.816V124.7C302.096 129.093 301.603 133.041 296.124 133.041C290.645 133.041 290.151 129.093 290.151 124.7V111.816H287.93V125.489C287.93 127.809 287.881 130.129 289.312 132.054C290.891 134.127 293.557 135.115 296.124 135.115C298.691 135.115 301.356 134.127 302.935 132.054C304.367 130.129 304.317 127.809 304.317 125.489V111.816H302.096ZM313.3 111.816H311.079V134.621H313.3V122.972C313.3 119.615 313.004 113.396 317.99 113.396C318.582 113.396 319.026 113.544 319.569 113.84L320.754 111.866C319.964 111.52 319.223 111.323 318.335 111.323C315.917 111.323 314.287 112.705 313.399 114.778H313.3V111.816ZM327.368 111.816H325.147V134.621H327.368V111.816ZM326.282 102.191C325.147 102.191 324.258 103.129 324.258 104.215C324.258 105.35 325.147 106.239 326.282 106.239C327.417 106.239 328.306 105.35 328.306 104.215C328.306 103.129 327.417 102.191 326.282 102.191ZM352.838 114.136C350.567 112.211 347.853 111.323 344.891 111.323C338.178 111.323 333.143 116.555 333.143 123.169C333.143 129.833 338.079 135.115 344.841 135.115C347.902 135.115 350.814 133.979 353.134 131.956V128.945C351.061 131.462 348.001 133.041 344.743 133.041C339.362 133.041 335.364 128.352 335.364 123.169C335.364 117.986 339.412 113.396 344.792 113.396C348.05 113.396 350.666 114.729 352.838 117.098V114.136ZM358.415 93.8985V134.621H360.636V123.367C360.636 118.727 361.574 113.396 367.3 113.396C372.286 113.396 372.779 116.752 372.779 120.849V134.621H375V120.849C375 114.976 373.371 111.323 367.498 111.323C364.536 111.323 362.068 112.853 360.735 115.37H360.636V93.8985H358.415Z" fill="black"/>
<path d="M27.8701 65H26.7205V86.0779H27.8701V80.8404L28.5089 80.1761L34.3596 86.0779H35.867L29.2498 79.3841L34.2063 74.2743H32.7245L27.8701 79.2819V65ZM42.3561 74.0188C38.9325 74.0188 36.2244 76.8036 36.2244 80.2017C36.2244 83.5486 38.9581 86.3334 42.3561 86.3334C45.8308 86.3334 48.5645 83.6763 48.5645 80.1761C48.5645 76.6759 45.8308 74.0188 42.3561 74.0188ZM42.2794 75.0919C45.192 75.0919 47.4148 77.2891 47.4148 80.2017C47.4148 83.0632 45.1664 85.2604 42.2794 85.2604C39.4946 85.2604 37.374 82.8843 37.374 80.2017C37.374 77.4679 39.4691 75.0919 42.2794 75.0919ZM52.2434 74.2743H51.0937V86.0779H52.2434V79.5885C52.2434 77.6723 52.7034 75.0919 55.1816 75.0919C57.481 75.0919 57.8131 76.957 57.8131 78.7965V86.0779H58.9629V79.2819C58.9629 77.238 59.5505 75.0919 62.0032 75.0919C64.2515 75.0919 64.5325 76.7015 64.5325 78.5154V86.0779H65.6822V78.6687C65.6822 76.0883 65.069 74.0188 62.0287 74.0188C60.5213 74.0188 59.2183 74.7597 58.5796 76.1649C57.9664 74.7853 56.7656 74.0188 55.2583 74.0188C54.0063 74.0188 52.8311 74.6575 52.2946 75.7561H52.2434V74.2743ZM70.945 74.2743H69.7954V86.0779H70.945V74.2743ZM70.383 69.2922C69.7954 69.2922 69.3355 69.7777 69.3355 70.3398C69.3355 70.9274 69.7954 71.3873 70.383 71.3873C70.9706 71.3873 71.4305 70.9274 71.4305 70.3398C71.4305 69.7777 70.9706 69.2922 70.383 69.2922ZM76.3613 75.3474H78.4307V74.2743H76.3613V70.0587H75.2116V74.2743H73.9086V75.3474H75.2116V86.0779H76.3613V75.3474ZM90.413 80.2783C90.4388 76.8803 88.3183 74.0188 84.7411 74.0188C81.2922 74.0188 79.0184 76.8547 79.0184 80.1506C79.0184 83.4974 81.2411 86.3334 84.7411 86.3334C87.0666 86.3334 88.957 85.1837 90.0302 83.1398L89.0589 82.5777C88.2158 84.1618 86.734 85.2604 84.8945 85.2604C82.161 85.2604 80.0914 83.2675 80.1681 80.2783L90.413 80.2783ZM80.1681 79.2052C80.3725 76.9825 82.3654 75.0919 84.7668 75.0919C87.1942 75.0919 88.9828 77.0336 89.2638 79.2052H80.1681ZM103.188 80.2783C103.213 76.8803 101.092 74.0188 97.5158 74.0188C94.0669 74.0188 91.793 76.8547 91.793 80.1506C91.793 83.4974 94.0154 86.3334 97.5158 86.3334C99.8407 86.3334 101.731 85.1837 102.804 83.1398L101.834 82.5777C100.991 84.1618 99.5087 85.2604 97.6692 85.2604C94.9351 85.2604 92.8655 83.2675 92.9422 80.2783L103.188 80.2783ZM92.9422 79.2052C93.1471 76.9825 95.1394 75.0919 97.5416 75.0919C99.9683 75.0919 101.757 77.0336 102.038 79.2052H92.9422Z" fill="black"/>
</svg>
