<svg width="400" height="200" viewBox="0 0 400 200" fill="none" xmlns="http://www.w3.org/2000/svg">
<path d="M311.786 100.172L306.836 89.0114H312.416L317.727 97.0218L346.618 96.1217L332.847 63H340.318L361.469 95.4917L366.329 95.4017C369.209 95.4017 371.82 95.7617 374.16 96.4818L377.4 97.5618C379.74 98.3719 381 99.1819 381 100.082C381 100.982 379.83 101.882 377.4 102.692L374.16 103.772C371.82 104.492 369.119 104.852 366.149 104.852L361.379 104.762L340.318 137.434H332.847L346.528 104.222L317.637 103.322L312.326 111.333H306.746L311.786 100.172Z" fill="#566487"/>
<path d="M47.2624 95.1322C47.2624 97.7423 46.1824 99.9025 43.9323 101.523C41.7721 103.143 38.622 103.953 34.6618 103.953H32.5017L30.7916 111.243H25.0313L30.1615 88.9219H38.172C39.612 88.9219 40.8721 89.0119 41.9522 89.1919C43.0322 89.3719 43.9323 89.7319 44.7423 90.1819C45.5523 90.632 46.0924 91.262 46.5424 92.072C47.0824 92.9721 47.2624 93.9621 47.2624 95.1322ZM41.1421 95.6722C41.1421 94.7722 40.7821 94.1422 40.2421 93.7821C39.612 93.3321 38.712 93.1521 37.4519 93.1521H35.1118L33.5817 99.8125H35.6518C37.3619 99.8125 38.802 99.4524 39.702 98.7324C40.6021 98.0124 41.1421 97.0223 41.1421 95.6722Z" fill="#566386"/>
<path d="M69.0436 94.591C69.0436 96.3911 68.5035 97.9212 67.4235 99.0913C66.3434 100.351 64.8133 101.251 63.0132 101.881L68.1435 111.332H61.7532L57.523 103.141H54.2828L52.3927 111.332H46.6324L51.7627 89.0107H60.4931C63.1933 89.0107 65.3534 89.4608 66.7934 90.3608C68.3235 91.2609 69.0436 92.7009 69.0436 94.591ZM62.8332 95.5811C62.8332 94.681 62.5632 94.051 61.9332 93.691C61.3932 93.331 60.4931 93.151 59.4131 93.151H56.5329L55.1828 99.1813H57.973C59.5031 99.1813 60.6731 98.9113 61.4832 98.2812C62.3832 97.5612 62.8332 96.6611 62.8332 95.5811Z" fill="#566386"/>
<path d="M94.3349 97.2928C94.3349 99.0929 94.0649 100.893 93.4349 102.693C92.8048 104.493 91.9048 106.023 90.7347 107.283C89.4747 108.723 87.9446 109.803 86.2345 110.614C84.5244 111.334 82.5443 111.784 80.2942 111.784C77.234 111.784 74.8939 110.974 73.1838 109.443C71.4737 107.913 70.5737 105.753 70.5737 102.963C70.5737 100.983 70.9337 99.1829 71.5637 97.4728C72.1938 95.7627 73.1838 94.2326 74.3539 92.8826C75.5239 91.6225 77.054 90.5424 78.7641 89.8224C80.5642 89.0124 82.4543 88.6523 84.5244 88.6523C87.5846 88.6523 89.9247 89.4624 91.7248 90.9925C93.5249 92.4325 94.3349 94.5927 94.3349 97.2928ZM86.1445 104.853C86.8645 103.953 87.3146 102.963 87.7646 101.793C88.1246 100.623 88.3046 99.2729 88.3046 97.7428C88.3046 96.1227 87.9446 94.8627 87.1345 93.9626C86.4145 93.0626 85.2444 92.6126 83.8944 92.6126C82.9943 92.6126 82.0943 92.7926 81.1942 93.2426C80.3842 93.6926 79.5741 94.3226 78.8541 95.2227C78.1341 96.0327 77.594 97.1128 77.234 98.2829C76.784 99.5429 76.604 100.893 76.604 102.423C76.604 104.133 76.964 105.393 77.774 106.293C78.5841 107.193 79.6641 107.553 81.0142 107.553C82.0043 107.553 82.9043 107.283 83.8044 106.833C84.7044 106.473 85.5145 105.753 86.1445 104.853Z" fill="#566386"/>
<path d="M125.567 89.0107L124.577 93.331H114.316L113.326 97.4712H122.776L121.786 101.791H112.246L110.086 111.332H104.325L109.456 89.0107H125.567Z" fill="#566386"/>
<path d="M139.517 111.243H123.406L128.537 88.9219H134.297L130.157 106.923H140.507L139.517 111.243Z" fill="#566386"/>
<path d="M166.789 89.0119L163.549 102.963C162.828 106.023 161.568 108.273 159.858 109.713C158.148 111.063 155.628 111.783 152.298 111.783C149.328 111.783 147.168 111.243 145.638 110.163C144.108 109.083 143.387 107.553 143.387 105.393C143.387 104.943 143.387 104.493 143.477 104.043C143.567 103.593 143.657 103.143 143.657 102.783L146.898 89.0119H152.658L149.508 102.783C149.418 103.053 149.418 103.413 149.328 103.683C149.328 104.043 149.238 104.313 149.238 104.493C149.238 105.393 149.508 106.113 150.048 106.653C150.588 107.103 151.578 107.373 152.838 107.373C154.098 107.373 155.088 107.013 155.898 106.293C156.708 105.573 157.248 104.493 157.608 103.053L160.848 88.9219H166.789V89.0119Z" fill="#566386"/>
<path d="M177.049 111.693C173.899 111.693 171.379 110.973 169.579 109.443C167.779 107.913 166.879 105.843 166.879 103.052C166.879 98.7322 168.229 95.222 171.019 92.5219C173.809 89.8218 177.319 88.4717 181.55 88.4717C183.17 88.4717 184.61 88.6517 186.05 88.9217C187.4 89.1917 188.84 89.7317 190.28 90.4518L189.02 95.6721H188.39C187.22 94.502 186.05 93.782 184.97 93.3319C183.89 92.8819 182.72 92.7019 181.46 92.7019C180.109 92.7019 178.939 92.9719 177.949 93.5119C176.869 94.052 175.969 94.772 175.249 95.6721C174.529 96.5721 173.989 97.5622 173.629 98.7322C173.269 99.9023 172.999 101.162 172.999 102.422C172.999 104.223 173.449 105.483 174.439 106.383C175.429 107.193 177.049 107.643 179.209 107.643C179.389 107.643 179.659 107.643 179.929 107.643C180.199 107.643 180.469 107.643 180.649 107.643L181.64 103.322H177.229L178.219 99.0922H188.48L185.96 110.073C184.61 110.523 183.26 110.973 181.73 111.243C180.199 111.603 178.579 111.693 177.049 111.693Z" fill="#566386"/>
<path d="M215.121 89.0107L209.991 111.332H204.231L206.481 101.521H198.02L195.77 111.332H190.01L195.14 89.0107H200.901L199.01 97.2012H207.471L209.361 89.0107H215.121Z" fill="#566386"/>
<path d="M235.552 111.243H229.792L229.252 106.653H221.062L218.451 111.243H212.421L225.832 88.9219H232.492L235.552 111.243ZM228.802 102.693L227.902 94.7722L223.312 102.693H228.802Z" fill="#566386"/>
<path d="M258.774 89.0107L257.783 93.331H247.523L246.533 97.4712H255.983L254.993 101.791H245.453L243.293 111.332H237.532L242.663 89.0107H258.774Z" fill="#566386"/>
<path d="M277.945 89.0119L276.955 93.2421H266.514L265.614 97.2023H275.244L274.254 101.433H264.624L263.364 107.013H273.714L272.724 111.243H256.613L261.744 88.9219H277.945V89.0119Z" fill="#566386"/>
<path d="M296.936 111.243H291.985L285.415 95.8522L281.815 111.243H276.504L281.635 88.9219H288.115L293.695 101.793L296.666 88.9219H301.976L296.936 111.243Z" fill="#566386"/>
<path d="M323.937 130.593H1L3.25012 124.923H326.187L323.937 130.593Z" fill="url(#paint0_linear_103_83)"/>
<path d="M323.937 70.8311H1L3.25012 76.5014H326.187L323.937 70.8311Z" fill="url(#paint1_linear_103_83)"/>
<defs>
<linearGradient id="paint0_linear_103_83" x1="326.222" y1="127.754" x2="1" y2="127.754" gradientUnits="userSpaceOnUse">
<stop stop-color="#566386" stop-opacity="0.5"/>
<stop offset="0.1059" stop-color="#767D9A" stop-opacity="0.447"/>
<stop offset="0.2574" stop-color="#9EA1B7" stop-opacity="0.3713"/>
<stop offset="0.41" stop-color="#C0C1D0" stop-opacity="0.295"/>
<stop offset="0.5613" stop-color="#DBDBE5" stop-opacity="0.2194"/>
<stop offset="0.7109" stop-color="#EEEFF4" stop-opacity="0.1446"/>
<stop offset="0.8581" stop-color="#FAFBFC" stop-opacity="0.070975"/>
<stop offset="1" stop-color="#FEFEFF" stop-opacity="0"/>
</linearGradient>
<linearGradient id="paint1_linear_103_83" x1="326.222" y1="73.664" x2="1" y2="73.664" gradientUnits="userSpaceOnUse">
<stop stop-color="#566386" stop-opacity="0.5"/>
<stop offset="0.1059" stop-color="#767D9A" stop-opacity="0.447"/>
<stop offset="0.2574" stop-color="#9EA1B7" stop-opacity="0.3713"/>
<stop offset="0.41" stop-color="#C0C1D0" stop-opacity="0.295"/>
<stop offset="0.5613" stop-color="#DBDBE5" stop-opacity="0.2194"/>
<stop offset="0.7109" stop-color="#EEEFF4" stop-opacity="0.1446"/>
<stop offset="0.8581" stop-color="#FAFBFC" stop-opacity="0.070975"/>
<stop offset="1" stop-color="#FEFEFF" stop-opacity="0"/>
</linearGradient>
</defs>
</svg>
