<svg width="400" height="200" viewBox="0 0 400 200" fill="none" xmlns="http://www.w3.org/2000/svg">
<path d="M88.2757 117.03C90.7209 115.714 92.0375 113.833 92.0375 111.012C92.0375 106.121 88.6519 102.924 82.6331 102.924H68.3384V132.83H83.1974C89.4043 132.83 92.9779 129.444 92.9779 124.178C92.9779 120.416 91.2851 118.159 88.2757 117.03ZM74.5453 107.814H81.5046C84.3259 107.814 85.8306 109.131 85.8306 111.576C85.8306 114.021 84.3259 115.338 81.5046 115.338H74.5453V107.814ZM82.0688 127.751H74.5453V119.664H82.0688C85.0783 119.664 86.771 121.168 86.771 123.802C86.771 126.247 85.0783 127.751 82.0688 127.751Z" fill="black"/>
<path d="M116.865 117.221C116.865 113.083 114.044 110.073 107.273 110.073C102.006 110.073 98.2444 112.518 97.1159 116.656L102.57 117.409C103.323 115.152 105.016 114.211 107.085 114.211C109.718 114.211 111.034 115.34 111.034 116.844C111.034 118.161 109.906 118.725 105.58 119.29C99.7491 120.042 96.3636 121.735 96.3636 126.437C96.3636 130.575 99.9372 133.02 103.699 133.02C106.708 133.02 109.718 131.891 111.034 129.446C111.034 130.951 111.223 132.08 111.599 132.456H117.429C116.865 131.515 116.865 130.387 116.865 127.942V117.221ZM111.034 124.18C111.034 127.753 107.837 129.258 105.58 129.258C103.699 129.258 102.382 128.318 102.382 126.437C102.382 124.368 104.075 123.427 106.332 123.051C108.401 122.675 110.47 122.487 111.034 121.923V124.18Z" fill="black"/>
<path d="M134.545 110.073C131.348 110.073 129.091 111.39 127.586 113.459H127.398V110.449H121.755V132.832H127.586V120.794C127.586 116.844 129.843 114.964 132.288 114.964C134.922 114.964 136.426 116.28 136.426 119.854V132.832H142.257V118.349C142.445 112.518 138.871 110.073 134.545 110.073Z" fill="black"/>
<path d="M179.875 110.073C172.915 110.073 168.777 114.587 168.777 121.735C168.777 128.694 173.103 133.208 179.875 133.208C186.834 133.208 189.843 129.258 190.596 126.061L184.577 125.496C184.389 127.189 183.072 129.07 179.875 129.07C176.865 129.07 174.796 126.625 174.796 122.863H190.972C191.536 114.587 186.834 110.073 179.875 110.073ZM174.984 119.101C175.172 116.468 176.865 114.211 180.063 114.211C183.26 114.211 184.953 116.468 185.141 119.101H174.984Z" fill="black"/>
<path d="M168.025 110.638H161.254L153.354 119.29V102.55H147.523V132.832H153.354V125.497L155.799 123.051L162.194 132.832H168.965L159.749 119.102L168.025 110.638Z" fill="black"/>
<path d="M252.1 110.073C245.141 110.073 241.003 114.587 241.003 121.735C241.003 128.694 245.329 133.208 252.1 133.208C259.06 133.208 262.069 129.258 262.821 126.061L256.802 125.496C256.426 127.001 255.11 128.882 251.912 128.882C248.903 128.882 246.834 126.437 246.834 122.675H263.009C263.762 114.587 259.06 110.073 252.1 110.073ZM247.21 119.101C247.398 116.468 249.091 114.211 252.288 114.211C255.486 114.211 257.179 116.468 257.367 119.101H247.21Z" fill="black"/>
<path d="M273.354 114.023L273.166 110.638H267.523V132.832H273.354V121.547C273.354 117.032 275.799 115.528 279.185 115.528C280.125 115.528 280.878 115.716 281.442 115.716V110.261C281.066 110.073 280.501 110.073 279.937 110.073C276.74 110.073 274.483 111.766 273.354 114.023Z" fill="black"/>
<path d="M229.53 126.248H229.342L224.263 110.637H217.868L225.956 132.831H232.727L240.815 110.637H234.608L229.53 126.248Z" fill="black"/>
<path d="M208.088 110.073C204.89 110.073 202.633 111.39 201.128 113.459H200.94V110.449H195.298V132.832H201.128V120.794C201.128 116.844 203.385 114.964 205.831 114.964C208.464 114.964 209.969 116.28 209.969 119.854V132.832H215.799V118.349C215.799 112.518 212.226 110.073 208.088 110.073Z" fill="black"/>
<path d="M103.887 67.1875H98.6206V71.8897H103.887V67.1875Z" fill="black"/>
<path d="M103.135 97.6584C106.332 97.6584 108.589 96.3418 110.094 94.2728H110.282V97.2822H115.925V75.0879H110.094V87.1255C110.094 91.0753 107.837 92.9562 105.392 92.9562C102.759 92.9562 101.254 91.6396 101.254 88.0659V75.0879H95.2351V89.5706C95.2351 95.2133 98.8087 97.6584 103.135 97.6584Z" fill="black"/>
<path d="M112.539 67.1875H107.273V71.8897H112.539V67.1875Z" fill="black"/>
<path d="M91.8495 92.0165H76.2382L92.0375 72.6434V67.377H69.0908V72.6434H83.9498L68.1504 92.0165V97.2829H91.8495V92.0165Z" fill="black"/>
<path d="M126.646 85.9968C126.646 81.4827 129.091 79.978 132.476 79.978C133.417 80.1661 134.357 80.1661 134.922 80.1661V74.7115C134.357 74.7115 133.793 74.5234 133.229 74.5234C130.031 74.5234 127.774 76.2162 126.646 78.4733H126.458V75.0877H120.815V97.094H126.646V85.9968Z" fill="black"/>
<path d="M373.981 102.55V113.271H373.793C372.476 111.39 370.219 110.261 367.21 110.261C361.755 110.261 357.618 114.776 357.618 121.923C357.618 129.07 361.755 133.396 367.398 133.396C370.219 133.396 372.853 132.268 374.169 130.011H374.357V132.832H380V102.55H373.981ZM368.903 128.882C365.517 128.882 363.448 126.437 363.448 121.735C363.448 117.033 365.517 114.587 368.903 114.587C372.1 114.587 374.357 117.033 374.357 121.735C374.357 126.437 372.1 128.882 368.903 128.882Z" fill="black"/>
<path d="M346.708 110.073C343.511 110.073 341.254 111.39 339.749 113.459H339.561V110.449H333.918V132.832H339.749V120.794C339.749 116.844 342.006 114.964 344.451 114.964C347.085 114.964 348.589 116.28 348.589 119.854V132.832H354.42V118.349C354.42 112.518 350.846 110.073 346.708 110.073Z" fill="black"/>
<path d="M328.84 117.221C328.84 113.083 326.019 110.073 319.248 110.073C313.981 110.073 310.219 112.518 309.091 116.656L314.545 117.409C315.298 115.152 316.99 114.211 319.059 114.211C321.693 114.211 322.821 115.34 322.821 116.844C322.821 118.161 321.693 118.725 317.367 119.29C311.536 120.042 308.15 121.735 308.15 126.437C308.15 130.575 311.724 133.02 315.486 133.02C318.495 133.02 321.505 131.891 322.821 129.446C322.821 130.951 323.009 132.08 323.385 132.456H329.216C328.652 131.515 328.652 130.387 328.652 127.942V117.221H328.84ZM323.009 124.18C323.009 127.753 319.812 129.258 317.555 129.258C315.674 129.258 314.357 128.318 314.357 126.437C314.357 124.368 316.05 123.427 318.307 123.051C320.376 122.675 322.445 122.487 323.009 121.923V124.18Z" fill="black"/>
<path d="M296.677 110.072C293.48 110.072 291.223 111.2 290.094 113.081H289.906V102.36H284.075V132.831H289.718V130.009H289.906C291.222 132.266 293.856 133.395 296.677 133.395C302.32 133.395 306.458 128.881 306.458 121.921C306.27 114.586 302.132 110.072 296.677 110.072ZM294.984 128.881C291.787 128.881 289.53 126.436 289.53 121.733C289.53 117.031 291.599 114.586 294.984 114.586C298.37 114.586 300.439 117.031 300.439 121.733C300.439 126.436 298.182 128.881 294.984 128.881Z" fill="black"/>
<path d="M222.947 80.1661C223.887 80.1661 224.639 80.3542 225.204 80.3542V74.7115C224.827 74.5234 224.263 74.5234 223.699 74.5234C220.501 74.5234 218.244 76.2162 217.116 78.4733H216.928V75.0877H211.285V97.094H217.116V85.9968C217.116 81.4827 219.749 80.1661 222.947 80.1661Z" fill="black"/>
<path d="M196.05 97.6582C203.009 97.6582 206.019 93.7084 206.771 90.5109L200.752 89.9466C200.376 91.4513 199.059 93.3322 195.862 93.3322C192.853 93.3322 190.784 90.8871 190.784 87.1253H206.959C207.523 79.2256 202.821 74.5234 196.05 74.5234C189.091 74.5234 184.953 79.0375 184.953 86.1849C184.953 93.1441 189.279 97.6582 196.05 97.6582ZM196.05 78.6614C199.248 78.6614 200.94 80.9184 201.128 83.5517H190.972C191.16 80.9184 192.853 78.6614 196.05 78.6614Z" fill="black"/>
<path d="M166.144 85.4326C166.144 81.4828 168.401 79.2257 170.846 79.2257C173.48 79.2257 174.984 80.5423 174.984 84.116V97.094H180.815V82.6113C180.815 76.9687 177.241 74.5235 173.103 74.5235C170.094 74.5235 167.837 75.8401 166.332 77.9091H166.144V67H160.313V97.2821H166.144V85.4326Z" fill="black"/>
<path d="M157.492 89.7585L151.661 89.0062C151.097 90.8871 149.969 93.3322 146.771 93.3322C143.762 93.3322 141.693 90.8871 141.693 86.1849C141.693 81.4827 143.762 79.0375 146.771 79.0375C149.781 79.0375 151.097 81.2946 151.473 82.7993L157.116 81.4827C156.364 78.8495 153.73 74.5234 146.771 74.5234C140 74.5234 135.674 79.0375 135.674 86.1849C135.674 93.3322 139.812 97.6582 146.771 97.6582C153.73 97.6582 156.552 93.5203 157.492 89.7585Z" fill="black"/>
<path d="M20 99.915V132.83H52.9154L36.3636 116.279L20 132.83V99.915Z" fill="#0070BA"/>
<path d="M20 99.915L36.3636 116.279L52.9154 99.915H20Z" fill="#45BFE3"/>
<path d="M20 132.83L36.3636 116.467L20 99.915V132.83Z" fill="#005198"/>
<path d="M20 99.916H52.9154L36.3636 83.3643L20 99.916Z" fill="#FFD618"/>
<path d="M20 67L36.3636 83.3636L52.9154 67H20Z" fill="#FFD618"/>
<path d="M52.9154 67L36.3637 83.3636L52.9154 99.9154V67Z" fill="#FCBF00"/>
</svg>
